<?xml version="1.0" encoding="UTF-8"?>
<svg version="1.1" xmlns="http://www.w3.org/2000/svg" width="120" height="74">
<path d="M0 0 C0.99 0 1.98 0 3 0 C3 0.66 3 1.32 3 2 C3.99 2 4.98 2 6 2 C6 1.34 6 0.68 6 0 C8.16874252 0.50603992 9.99967627 0.99983813 12 2 C12 1.34 12 0.68 12 0 C13.875 0.25 13.875 0.25 16 1 C17.3125 2.9375 17.3125 2.9375 18 5 C17.67 5.66 17.34 6.32 17 7 C17.99 7.66 18.98 8.32 20 9 C20 7.68 20 6.36 20 5 C25.38023451 2.79899497 25.38023451 2.79899497 28.3125 3.75 C30 5 30 5 31 7 C31.12029953 10.24808738 31.22659938 13.16158229 30.375 16.3125 C30.189375 17.1478125 30.189375 17.1478125 30 18 C30.66 18.66 31.32 19.32 32 20 C32 21.32 32 22.64 32 24 C31.01 24.495 31.01 24.495 30 25 C29.01665245 27.85170789 29 29.89640609 29 33 C29 35 29 37 29 39 C27.02 39 25.04 39 23 39 C22.67 37.35 22.34 35.7 22 34 C18.06782815 33.80744421 14.13529426 33.62877099 10.2019043 33.46289062 C8.20653467 33.3758305 6.21165305 33.27781127 4.21679688 33.1796875 C2.96318359 33.128125 1.70957031 33.0765625 0.41796875 33.0234375 C-0.73936768 32.97106934 -1.8967041 32.91870117 -3.08911133 32.86474609 C-6.19617442 32.75848969 -6.19617442 32.75848969 -9 35 C-8.67 36.32 -8.34 37.64 -8 39 C-9.98 39 -11.96 39 -14 39 C-14.17942163 35.05272412 -14.09350689 32.4019487 -12 29 C-12.99 28.67 -13.98 28.34 -15 28 C-15 26.68 -15 25.36 -15 24 C-15.66 24 -16.32 24 -17 24 C-17 22.35 -17 20.7 -17 19 C-16.34 18.67 -15.68 18.34 -15 18 C-15.2475 17.2575 -15.2475 17.2575 -15.5 16.5 C-16.23601002 12.81994988 -16.29911989 9.76891065 -16 6 C-14.4375 3.875 -14.4375 3.875 -12 3 C-8.25 3.8125 -8.25 3.8125 -5 5 C-5 6.65 -5 8.3 -5 10 C-2.37613513 6.93882432 -2 6.26826873 -2 2 C-1.34 2 -0.68 2 0 2 C0 1.34 0 0.68 0 0 Z M2 8 C3.00836062 9.23267348 3.00836062 9.23267348 5.06640625 9.09765625 C5.89011719 9.08605469 6.71382812 9.07445312 7.5625 9.0625 C8.80193359 9.04896484 8.80193359 9.04896484 10.06640625 9.03515625 C11.02353516 9.01775391 11.02353516 9.01775391 12 9 C12 8.01 12 7.02 12 6 C6.41335154 5.39578469 6.41335154 5.39578469 2 8 Z M-2 18 C-2.66 19.32 -3.32 20.64 -4 22 C-3.01 22.33 -2.02 22.66 -1 23 C-1 21.35 -1 19.7 -1 18 C-1.33 18 -1.66 18 -2 18 Z M16 18 C16 19.65 16 21.3 16 23 C16.66 22.34 17.32 21.68 18 21 C17.34 20.01 16.68 19.02 16 18 Z " fill="#9C8A77" transform="translate(58,0)"/>
<path d="M0 0 C0.99 0.33 1.98 0.66 3 1 C3 1.99 3 2.98 3 4 C8.28 4.33 13.56 4.66 19 5 C18.34 6.32 17.68 7.64 17 9 C16.00949052 11.61061405 15.04723863 14.22970048 14.09765625 16.85546875 C13 19 13 19 10 20 C9.66226563 19.21753906 9.32453125 18.43507813 8.9765625 17.62890625 C8.53054687 16.61699219 8.08453125 15.60507812 7.625 14.5625 C7.18414062 13.55316406 6.74328125 12.54382813 6.2890625 11.50390625 C5.24923714 8.87856453 5.24923714 8.87856453 3 8 C3 10.97 3 13.94 3 17 C3.99 17.33 4.98 17.66 6 18 C5.67 18.66 5.34 19.32 5 20 C5.99 20.6496875 5.99 20.6496875 7 21.3125 C7.66 21.869375 8.32 22.42625 9 23 C9 23.99 9 24.98 9 26 C9.99 25.67 10.98 25.34 12 25 C12.99 25.33 13.98 25.66 15 26 C19.654797 26.3053818 19.654797 26.3053818 24 25 C24.495 23.515 24.495 23.515 25 22 C25.66 22 26.32 22 27 22 C27 23.32 27 24.64 27 26 C27.69867188 26 28.39734375 26 29.1171875 26 C32.41145833 26 35.70572917 26 39 26 C39.639375 25.814375 40.27875 25.62875 40.9375 25.4375 C43 25 43 25 46 26 C47.62719482 26.08143855 49.25751719 26.1075302 50.88671875 26.09765625 C51.82451172 26.09443359 52.76230469 26.09121094 53.72851562 26.08789062 C54.70498047 26.07951172 55.68144531 26.07113281 56.6875 26.0625 C57.67556641 26.05798828 58.66363281 26.05347656 59.68164062 26.04882812 C62.12115474 26.03704303 64.56054689 26.02059011 67 26 C67.19401633 27.81181405 67.38004375 29.62448532 67.5625 31.4375 C67.71912109 32.95150391 67.71912109 32.95150391 67.87890625 34.49609375 C67.93884766 35.73552734 67.93884766 35.73552734 68 37 C67 38 67 38 64.71484375 38.09765625 C63.79832031 38.08605469 62.88179688 38.07445312 61.9375 38.0625 C61.01839844 38.05347656 60.09929687 38.04445312 59.15234375 38.03515625 C58.44207031 38.02355469 57.73179688 38.01195312 57 38 C57.33 35.69 57.66 33.38 58 31 C56.35 31.33 54.7 31.66 53 32 C52.67 33.32 52.34 34.64 52 36 C52.99 36 53.98 36 55 36 C55 36.66 55 37.32 55 38 C44.77 38 34.54 38 24 38 C24 35.03 24 32.06 24 29 C23.34 29 22.68 29 22 29 C21.67 31.31 21.34 33.62 21 36 C21.66 36 22.32 36 23 36 C23 36.66 23 37.32 23 38 C20.56183415 38.0809723 18.12635616 38.14046972 15.6875 38.1875 C14.99720703 38.21263672 14.30691406 38.23777344 13.59570312 38.26367188 C8.49462407 38.33760056 8.49462407 38.33760056 6.03125 36.65625 C4.61536553 34.38225373 4.78737405 32.62238667 5 30 C2.69 30 0.38 30 -2 30 C-2 31.98 -2 33.96 -2 36 C-0.68 36 0.64 36 2 36 C2 36.66 2 37.32 2 38 C-1.63 38 -5.26 38 -9 38 C-9 37.34 -9 36.68 -9 36 C-8.01 36 -7.02 36 -6 36 C-6 31.38 -6 26.76 -6 22 C-6.99 22 -7.98 22 -9 22 C-9 21.34 -9 20.68 -9 20 C-10.65 20 -12.3 20 -14 20 C-13.67 21.32 -13.34 22.64 -13 24 C-11.35 24.33 -9.7 24.66 -8 25 C-7.875 27.875 -7.875 27.875 -8 31 C-10 33 -10 33 -12.8203125 33.1953125 C-13.91085938 33.17210937 -15.00140625 33.14890625 -16.125 33.125 C-17.22070312 33.10695312 -18.31640625 33.08890625 -19.4453125 33.0703125 C-20.28835937 33.04710937 -21.13140625 33.02390625 -22 33 C-23.0703125 30.64453125 -23.0703125 30.64453125 -24 28 C-22.875 25.6875 -22.875 25.6875 -21 24 C-19.68 24 -18.36 24 -17 24 C-17 23.34 -17 22.68 -17 22 C-17.66 22 -18.32 22 -19 22 C-19 20.35 -19 18.7 -19 17 C-18.01 17 -17.02 17 -16 17 C-16.33 14.03 -16.66 11.06 -17 8 C-17.66 8 -18.32 8 -19 8 C-19 7.01 -19 6.02 -19 5 C-9.7 5 -9.7 5 -5 6 C-3.79727181 8.40545638 -3.89928528 9.94996953 -3.9375 12.625 C-3.94652344 13.44226562 -3.95554687 14.25953125 -3.96484375 15.1015625 C-3.97644531 15.72804688 -3.98804687 16.35453125 -4 17 C-3.01 17 -2.02 17 -1 17 C-1 14.03 -1 11.06 -1 8 C-1.99 7.67 -2.98 7.34 -4 7 C-3.34 6.01 -2.68 5.02 -2 4 C-2 3.01 -2 2.02 -2 1 C-1.34 0.67 -0.68 0.34 0 0 Z M11 7 C9.66666667 10 9.66666667 10 11 13 C11.66 13 12.32 13 13 13 C13.33 11.35 13.66 9.7 14 8 C13.01 7.67 12.02 7.34 11 7 Z M-11 8 C-12.20561184 8.98267859 -12.20561184 8.98267859 -12.09765625 10.84765625 C-12.08605469 11.57855469 -12.07445312 12.30945313 -12.0625 13.0625 C-12.041875 14.361875 -12.02125 15.66125 -12 17 C-10.68 17 -9.36 17 -8 17 C-8 14.03 -8 11.06 -8 8 C-8.99 8 -9.98 8 -11 8 Z M-2 22 C-2 23.98 -2 25.96 -2 28 C-0.35 28 1.3 28 3 28 C3.38218767 26.34385343 3.71395102 24.67542976 4 23 C2.93354885 21.70366379 2.93354885 21.70366379 0.4375 21.9375 C-0.366875 21.958125 -1.17125 21.97875 -2 22 Z M-19 26 C-19.33 27.32 -19.66 28.64 -20 30 C-19.34 28.68 -18.68 27.36 -18 26 C-18.33 26 -18.66 26 -19 26 Z M10 28 C8.66351983 29.11101184 8.66351983 29.11101184 8.875 31.9375 C8.78674336 34.91545728 8.78674336 34.91545728 10 37 C10.99 36.67 11.98 36.34 13 36 C13 33.36 13 30.72 13 28 C12.01 28 11.02 28 10 28 Z M41 28 C40.67 28.99 40.34 29.98 40 31 C41.32 31 42.64 31 44 31 C43.67 30.01 43.34 29.02 43 28 C42.34 28 41.68 28 41 28 Z M61 28 C61 28.66 61 29.32 61 30 C62.32 30.33 63.64 30.66 65 31 C64.34 30.01 63.68 29.02 63 28 C62.34 28 61.68 28 61 28 Z M17 29 C17 31.31 17 33.62 17 36 C17.33 36 17.66 36 18 36 C18 33.69 18 31.38 18 29 C17.67 29 17.34 29 17 29 Z M27 29 C27 31.31 27 33.62 27 36 C27.66 36 28.32 36 29 36 C29 35.01 29 34.02 29 33 C29.99 33 30.98 33 32 33 C32.33 33.99 32.66 34.98 33 36 C33 33.36 33 30.72 33 28 C30.84365964 28 29.07553648 28.4465236 27 29 Z M47 28 C47.33 29.65 47.66 31.3 48 33 C45.36 33 42.72 33 40 33 C40.66 34.32 41.32 35.64 42 37 C42.99 36.67 43.98 36.34 45 36 C45 35.34 45 34.68 45 34 C45.99 34 46.98 34 48 34 C48.33 34.66 48.66 35.32 49 36 C49 33.36 49 30.72 49 28 C48.34 28 47.68 28 47 28 Z M60 33 C60.33 33.99 60.66 34.98 61 36 C61.99 36.33 62.98 36.66 64 37 C64 36.01 64 35.02 64 34 C62.68 33.67 61.36 33.34 60 33 Z M36 34 C37 36 37 36 37 36 Z " fill="#9C8A77" transform="translate(39,36)"/>
<path d="M0 0 C0.66 0.33 1.32 0.66 2 1 C2 1.99 2 2.98 2 4 C1.01 4.66 0.02 5.32 -1 6 C-0.505 6.37125 -0.01 6.7425 0.5 7.125 C2.59755514 9.74694393 2.21743835 11.73842472 2 15 C-0.31 15 -2.62 15 -5 15 C-4.505 17.475 -4.505 17.475 -4 20 C-1.13275314 19.42655063 -0.1385485 19.1385485 2 17 C1.505 19.475 1.505 19.475 1 22 C-2.55673617 22.08083491 -5.56815235 21.88973828 -9 21 C-9.495 21.495 -9.495 21.495 -10 22 C-13 22.125 -13 22.125 -16 22 C-17 21 -17 21 -17.09765625 18.49609375 C-17.08605469 17.48675781 -17.07445312 16.47742188 -17.0625 15.4375 C-17.05347656 14.42558594 -17.04445312 13.41367187 -17.03515625 12.37109375 C-17.02355469 11.58863281 -17.01195312 10.80617188 -17 10 C-17.99 10 -18.98 10 -20 10 C-20 13.3 -20 16.6 -20 20 C-19.34 20 -18.68 20 -18 20 C-18 20.66 -18 21.32 -18 22 C-20.27020744 22.19493195 -22.54120289 22.38070418 -24.8125 22.5625 C-26.70935547 22.71912109 -26.70935547 22.71912109 -28.64453125 22.87890625 C-32 23 -32 23 -35 22 C-35.99 22 -36.98 22 -38 22 C-38 19.36 -38 16.72 -38 14 C-39.65 13.34 -41.3 12.68 -43 12 C-43 14.64 -43 17.28 -43 20 C-42.34 20 -41.68 20 -41 20 C-41 20.66 -41 21.32 -41 22 C-41.71027344 21.98839844 -42.42054687 21.97679688 -43.15234375 21.96484375 C-44.07144531 21.95582031 -44.99054688 21.94679688 -45.9375 21.9375 C-47.31228516 21.92009766 -47.31228516 21.92009766 -48.71484375 21.90234375 C-50.96593327 21.74050951 -50.96593327 21.74050951 -52 23 C-58.19266055 22.6559633 -58.19266055 22.6559633 -61 20.375 C-62.44116288 16.95223815 -61.85557966 14.55394628 -61 11 C-60.34 10.34 -59.68 9.68 -59 9 C-59.34786708 7.02463255 -59.34786708 7.02463255 -60 5 C-60 4.01 -60 3.02 -60 2 C-55.45198953 0.48399651 -50.76571335 1 -46 1 C-45.34 3.31 -44.68 5.62 -44 8 C-39.72254046 8.07129099 -36.13616082 8.07233799 -32 7 C-31.01 7.33 -30.02 7.66 -29 8 C-26.93854893 8.068991 -24.87498599 8.08467727 -22.8125 8.0625 C-21.72582031 8.05347656 -20.63914063 8.04445313 -19.51953125 8.03515625 C-18.68808594 8.02355469 -17.85664062 8.01195312 -17 8 C-16.67 6.35 -16.34 4.7 -16 3 C-15.01 3 -14.02 3 -13 3 C-13 4.65 -13 6.3 -13 8 C-11.68 8 -10.36 8 -9 8 C-9 8.66 -9 9.32 -9 10 C-10.32 10 -11.64 10 -13 10 C-13 13.3 -13 16.6 -13 20 C-12.34 20 -11.68 20 -11 20 C-10.81824219 19.31292969 -10.63648438 18.62585938 -10.44921875 17.91796875 C-10.07216797 16.56638672 -10.07216797 16.56638672 -9.6875 15.1875 C-9.44386719 14.29417969 -9.20023438 13.40085937 -8.94921875 12.48046875 C-7.96706598 9.91393784 -7.01665809 8.80039449 -5 7 C-4.67 6.34 -4.34 5.68 -4 5 C-2.94006339 2.88012678 -1.74273254 1.58430231 0 0 Z M-52 8 C-51.34 8.66 -50.68 9.32 -50 10 C-50 9.34 -50 8.68 -50 8 C-50.66 8 -51.32 8 -52 8 Z M-57 10 C-57 10.99 -57 11.98 -57 13 C-55.68 13 -54.36 13 -53 13 C-53.33 12.01 -53.66 11.02 -54 10 C-54.99 10 -55.98 10 -57 10 Z M-50 10 C-49.67 11.98 -49.34 13.96 -49 16 C-51.97 16 -54.94 16 -58 16 C-57.67 17.32 -57.34 18.64 -57 20 C-53.28263359 20.34900558 -53.28263359 20.34900558 -50.1875 18.5 C-49.795625 18.005 -49.40375 17.51 -49 17 C-49 17.99 -49 18.98 -49 20 C-48.34 20 -47.68 20 -47 20 C-47 17.03 -47 14.06 -47 11 C-47.99 10.67 -48.98 10.34 -50 10 Z M-34 10 C-33.67 10.99 -33.34 11.98 -33 13 C-30.98491642 13.73323796 -30.98491642 13.73323796 -29 14 C-29.66 12.68 -30.32 11.36 -31 10 C-31.99 10 -32.98 10 -34 10 Z M-27 10 C-28.15837626 14.05431692 -27.83691257 16.21812119 -26 20 C-25.34 20 -24.68 20 -24 20 C-24 16.7 -24 13.4 -24 10 C-24.99 10 -25.98 10 -27 10 Z M-4 10 C-4.33 10.99 -4.66 11.98 -5 13 C-3.35 13 -1.7 13 0 13 C-0.33 12.01 -0.66 11.02 -1 10 C-1.99 10 -2.98 10 -4 10 Z M-35 16 C-34.34 17.32 -33.68 18.64 -33 20 C-31.68 20 -30.36 20 -29 20 C-29 19.34 -29 18.68 -29 18 C-30.98 17.34 -32.96 16.68 -35 16 Z " fill="#A30F2A" transform="translate(118,33)"/>
<path d="M0 0 C0.99 0.33 1.98 0.66 3 1 C3 1.99 3 2.98 3 4 C8.28 4.33 13.56 4.66 19 5 C18.34 6.32 17.68 7.64 17 9 C16.00949052 11.61061405 15.04723863 14.22970048 14.09765625 16.85546875 C13 19 13 19 10 20 C9.66226563 19.21753906 9.32453125 18.43507813 8.9765625 17.62890625 C8.53054687 16.61699219 8.08453125 15.60507812 7.625 14.5625 C7.18414062 13.55316406 6.74328125 12.54382813 6.2890625 11.50390625 C5.24923714 8.87856453 5.24923714 8.87856453 3 8 C3 10.97 3 13.94 3 17 C3.99 17.33 4.98 17.66 6 18 C6 18.33 6 18.66 6 19 C-7.6332574 20.14806378 -7.6332574 20.14806378 -14 20 C-13.67 21.32 -13.34 22.64 -13 24 C-11.35 24.33 -9.7 24.66 -8 25 C-7.875 27.875 -7.875 27.875 -8 31 C-10 33 -10 33 -12.8203125 33.1953125 C-13.91085938 33.17210937 -15.00140625 33.14890625 -16.125 33.125 C-17.22070312 33.10695312 -18.31640625 33.08890625 -19.4453125 33.0703125 C-20.28835937 33.04710937 -21.13140625 33.02390625 -22 33 C-23.0703125 30.64453125 -23.0703125 30.64453125 -24 28 C-22.875 25.6875 -22.875 25.6875 -21 24 C-19.68 24 -18.36 24 -17 24 C-17 23.34 -17 22.68 -17 22 C-17.66 22 -18.32 22 -19 22 C-19 20.35 -19 18.7 -19 17 C-18.01 17 -17.02 17 -16 17 C-16.33 14.03 -16.66 11.06 -17 8 C-17.66 8 -18.32 8 -19 8 C-19 7.01 -19 6.02 -19 5 C-9.7 5 -9.7 5 -5 6 C-3.79727181 8.40545638 -3.89928528 9.94996953 -3.9375 12.625 C-3.94652344 13.44226562 -3.95554687 14.25953125 -3.96484375 15.1015625 C-3.97644531 15.72804688 -3.98804687 16.35453125 -4 17 C-3.01 17 -2.02 17 -1 17 C-1 14.03 -1 11.06 -1 8 C-1.99 7.67 -2.98 7.34 -4 7 C-3.34 6.01 -2.68 5.02 -2 4 C-2 3.01 -2 2.02 -2 1 C-1.34 0.67 -0.68 0.34 0 0 Z M11 7 C9.66666667 10 9.66666667 10 11 13 C11.66 13 12.32 13 13 13 C13.33 11.35 13.66 9.7 14 8 C13.01 7.67 12.02 7.34 11 7 Z M-11 8 C-12.20561184 8.98267859 -12.20561184 8.98267859 -12.09765625 10.84765625 C-12.08605469 11.57855469 -12.07445312 12.30945313 -12.0625 13.0625 C-12.041875 14.361875 -12.02125 15.66125 -12 17 C-10.68 17 -9.36 17 -8 17 C-8 14.03 -8 11.06 -8 8 C-8.99 8 -9.98 8 -11 8 Z M-19 26 C-19.33 27.32 -19.66 28.64 -20 30 C-19.34 28.68 -18.68 27.36 -18 26 C-18.33 26 -18.66 26 -19 26 Z " fill="#A30F29" transform="translate(39,36)"/>
<path d="M0 0 C2.25 1.25 2.25 1.25 3.25 3.25 C3.37029953 6.49808738 3.47659938 9.41158229 2.625 12.5625 C2.50125 13.119375 2.3775 13.67625 2.25 14.25 C2.91 14.91 3.57 15.57 4.25 16.25 C4.25 17.57 4.25 18.89 4.25 20.25 C3.59 20.58 2.93 20.91 2.25 21.25 C1.26665245 24.10170789 1.25 26.14640609 1.25 29.25 C1.25 31.25 1.25 33.25 1.25 35.25 C-0.73 35.25 -2.71 35.25 -4.75 35.25 C-5.08 33.6 -5.41 31.95 -5.75 30.25 C-6.884375 29.981875 -8.01875 29.71375 -9.1875 29.4375 C-10.363125 29.045625 -11.53875 28.65375 -12.75 28.25 C-13.08 27.26 -13.41 26.27 -13.75 25.25 C-13.09 24.92 -12.43 24.59 -11.75 24.25 C-11.770625 23.46625 -11.79125 22.6825 -11.8125 21.875 C-11.75 19.25 -11.75 19.25 -10.75 17.25 C-10.95800104 14.89800784 -10.95800104 14.89800784 -11.5 12.3125 C-11.65984375 11.43722656 -11.8196875 10.56195313 -11.984375 9.66015625 C-12.80683246 7.07109375 -13.68732743 5.96700491 -15.75 4.25 C-13.4375 3.625 -13.4375 3.625 -10.75 3.25 C-9.76 3.91 -8.77 4.57 -7.75 5.25 C-7.75 3.93 -7.75 2.61 -7.75 1.25 C-4.71997804 -0.30829701 -3.35077048 -0.91384649 0 0 Z " fill="#9C8A77" transform="translate(85.75,3.75)"/>
<path d="M0 0 C1.06347656 0.00515625 2.12695312 0.0103125 3.22265625 0.015625 C4.28355469 0.01046875 5.34445313 0.0053125 6.4375 0 C9.28515625 0.265625 9.28515625 0.265625 12.28515625 2.265625 C12.62573242 4.14501953 12.62573242 4.14501953 12.578125 6.3984375 C12.56845703 7.20410156 12.55878906 8.00976562 12.54882812 8.83984375 C12.52369141 9.68160156 12.49855469 10.52335937 12.47265625 11.390625 C12.45235352 12.66486328 12.45235352 12.66486328 12.43164062 13.96484375 C12.39623844 16.06537337 12.34243026 18.16557793 12.28515625 20.265625 C11.62515625 20.265625 10.96515625 20.265625 10.28515625 20.265625 C10.94515625 21.585625 11.60515625 22.905625 12.28515625 24.265625 C6.67515625 24.265625 1.06515625 24.265625 -4.71484375 24.265625 C-4.05484375 22.945625 -3.39484375 21.625625 -2.71484375 20.265625 C-3.37484375 20.265625 -4.03484375 20.265625 -4.71484375 20.265625 C-4.76863601 17.30705091 -4.80841468 14.34944779 -4.83984375 11.390625 C-4.85660156 10.54886719 -4.87335937 9.70710938 -4.890625 8.83984375 C-4.89707031 8.03417969 -4.90351562 7.22851562 -4.91015625 6.3984375 C-4.9258667 5.28299561 -4.9258667 5.28299561 -4.94189453 4.14501953 C-4.54294219 0.84272369 -3.13481655 0.30671586 0 0 Z " fill="#A2102A" transform="translate(61.71484375,8.734375)"/>
<path d="M0 0 C3.96 0 7.92 0 12 0 C12 0.99 12 1.98 12 3 C10.68 3 9.36 3 8 3 C8.33 8.28 8.66 13.56 9 19 C10.98 19 12.96 19 15 19 C16.44207941 16.11584117 16.09394887 13.58278472 16.0625 10.375 C16.05347656 9.18648437 16.04445313 7.99796875 16.03515625 6.7734375 C16.02355469 5.85820313 16.01195313 4.94296875 16 4 C15.01 3.67 14.02 3.34 13 3 C13 2.01 13 1.02 13 0 C16.3 0 19.6 0 23 0 C22 3 22 3 20 4 C19.70187429 7.16239682 19.58411728 10.27972456 19.52148438 13.453125 C19.32018783 18.50026759 19.32018783 18.50026759 17.74609375 20.95703125 C15.5259927 22.28313188 14.07616729 22.36831696 11.5 22.3125 C10.7265625 22.30863281 9.953125 22.30476563 9.15625 22.30078125 C7 22 7 22 4 20 C2.81318274 16.43954823 2.90310168 13.56191663 2.9375 9.8125 C2.94652344 8.54019531 2.95554688 7.26789062 2.96484375 5.95703125 C2.97644531 4.98121094 2.98804688 4.00539063 3 3 C2.01 3 1.02 3 0 3 C0 2.01 0 1.02 0 0 Z " fill="#A30F2A" transform="translate(0,34)"/>
<path d="M0 0 C1.65 0 3.3 0 5 0 C5.33 1.32 5.66 2.64 6 4 C7.65 4.33 9.3 4.66 11 5 C11.125 7.875 11.125 7.875 11 11 C9 13 9 13 6.1796875 13.1953125 C5.08914062 13.17210938 3.99859375 13.14890625 2.875 13.125 C1.77929688 13.10695313 0.68359375 13.08890625 -0.4453125 13.0703125 C-1.70988281 13.03550781 -1.70988281 13.03550781 -3 13 C-4.0703125 10.64453125 -4.0703125 10.64453125 -5 8 C-3.875 5.6875 -3.875 5.6875 -2 4 C-0.68 4 0.64 4 2 4 C2 3.34 2 2.68 2 2 C1.34 2 0.68 2 0 2 C0 1.34 0 0.68 0 0 Z M0 6 C-0.33 7.32 -0.66 8.64 -1 10 C-0.34 8.68 0.32 7.36 1 6 C0.67 6 0.34 6 0 6 Z " fill="#9D8B77" transform="translate(20,56)"/>
<path d="M0 0 C0.99 0 1.98 0 3 0 C3 0.66 3 1.32 3 2 C3.99 2 4.98 2 6 2 C6 1.34 6 0.68 6 0 C8.16874252 0.50603992 9.99967627 0.99983813 12 2 C12 1.34 12 0.68 12 0 C13.875 0.25 13.875 0.25 16 1 C17.25 3.0625 17.25 3.0625 18 5 C16 7 16 7 12.375 7.23046875 C10.9166018 7.22647678 9.45820257 7.2117184 8 7.1875 C7.26265625 7.18685547 6.5253125 7.18621094 5.765625 7.18554688 C0.28101809 7.14050904 0.28101809 7.14050904 -2 6 C-2 4.68 -2 3.36 -2 2 C-1.34 2 -0.68 2 0 2 C0 1.34 0 0.68 0 0 Z " fill="#A50F2A" transform="translate(58,0)"/>
<path d="M0 0 C2.475 0.495 2.475 0.495 5 1 C4.67 1.99 4.34 2.98 4 4 C2.68 4 1.36 4 0 4 C0 2.68 0 1.36 0 0 Z " fill="#A50F29" transform="translate(93,36)"/>
<path d="M0 0 C1.98 0.495 1.98 0.495 4 1 C3.67 1.99 3.34 2.98 3 4 C1.68 4 0.36 4 -1 4 C-0.67 2.68 -0.34 1.36 0 0 Z " fill="#9F8C79" transform="translate(72,57)"/>
<path d="M0 0 C0.99 0.33 1.98 0.66 3 1 C3 1.99 3 2.98 3 4 C1.68 4 0.36 4 -1 4 C-0.67 2.68 -0.34 1.36 0 0 Z " fill="#9E8C78" transform="translate(57,57)"/>
</svg>
