<?xml version="1.0" encoding="UTF-8"?>
<svg version="1.1" xmlns="http://www.w3.org/2000/svg" width="800" height="554">
<path d="M0 0 C1.64408715 0.62107198 3.2903029 1.23653499 4.93847656 1.84667969 C6.67421288 2.53416777 8.40819468 3.22609802 10.140625 3.921875 C11.08880096 4.29865891 12.03697693 4.67544281 13.0138855 5.06364441 C16.09413285 6.28859513 19.17204964 7.51929044 22.25 8.75 C24.40460721 9.60795027 26.55939455 10.46544832 28.71435547 11.32250977 C33.07092448 13.05543441 37.42679198 14.79010524 41.78222656 16.52587891 C49.77833349 19.71033118 57.78579739 22.86575645 65.79421997 26.01907349 C70.34477245 27.8121848 74.89285884 29.61154103 79.44120789 31.41023254 C83.8796652 33.16468043 88.32103191 34.9115281 92.7644043 36.65348816 C95.61289581 37.77170623 98.45915442 38.89552279 101.30487061 40.02078247 C102.62994903 40.54333301 103.95598382 41.06346567 105.28302002 41.58102417 C107.08308465 42.28337624 108.87954735 42.99493936 110.67578125 43.70703125 C111.68552002 44.1038208 112.69525879 44.50061035 113.7355957 44.90942383 C116 46 116 46 117 48 C116.0625 50.125 116.0625 50.125 115 52 C115.56017822 52.15782959 116.12035645 52.31565918 116.69750977 52.47827148 C124.23889349 54.66594671 131.57915967 57.33082573 138.9375 60.0625 C140.27419782 60.55727341 141.61095019 61.05189948 142.94775391 61.54638672 C144.99439951 62.30345081 147.04095623 63.06074412 149.08703613 63.81933594 C153.23502269 65.35531265 157.39212155 66.86232973 161.55859375 68.34765625 C175.38872291 73.30998661 188.96318527 78.79394249 202.5 84.5 C203.33045837 84.84718079 204.16091675 85.19436157 205.01654053 85.55206299 C220.82858151 92.17877375 236.08239485 99.70731603 250.578125 108.88671875 C253.92716951 110.98841505 257.36354944 112.92192683 260.8059082 114.86572266 C270.30054066 120.24326397 279.21877314 126.14175582 288.02734375 132.57421875 C289.91788284 133.940648 291.82749629 135.27279079 293.75 136.59375 C303.90586412 143.60357877 312.7272395 151.59153399 321.3671875 160.3984375 C323.14130008 162.13859577 324.98986551 163.75600214 326.875 165.375 C328.25193296 166.58113021 329.62690202 167.78950573 331 169 C331.66515625 169.57363281 332.3303125 170.14726562 333.015625 170.73828125 C340.77470099 177.90824221 346.36725843 186.76768412 352.26586914 195.46484375 C354.61275935 198.89580361 357.02143914 202.28203402 359.43579102 205.66577148 C367.18098974 217.22373075 371.87609147 231.14771778 377 244 C377.36875244 244.90927246 377.73750488 245.81854492 378.11743164 246.75537109 C380.76170244 253.57529146 382.12562267 260.27744198 383.1875 267.5 C383.51237664 269.61488323 383.8391122 271.72948198 384.16796875 273.84375 C384.37329224 275.22336914 384.37329224 275.22336914 384.58276367 276.63085938 C384.9646266 279.13869942 384.9646266 279.13869942 386 282 C386.93713926 294.13838492 386.95396726 306.39354826 387.125 318.5625 C387.13816254 319.44880348 387.15132507 320.33510696 387.16488647 321.24826813 C387.5615695 351.18055607 384.65257529 375.74422524 369 402 C368.34 402 367.68 402 367 402 C364.87229369 383.09828259 364.01479692 364.13168019 363.06671143 345.14337158 C362.72513786 338.3207745 362.37531261 331.49859534 362.02572823 324.67640495 C361.90618449 322.32931437 361.7888155 319.98212373 361.67185974 317.63490295 C361.08301065 299.34178808 361.08301065 299.34178808 357.75 281.4375 C357.41621338 280.22864136 357.41621338 280.22864136 357.07568359 278.99536133 C354.10486186 268.49699235 350.05046905 258.79800234 345.0625 249.1015625 C343.49153492 246.02302759 342.0141212 242.90997616 340.5625 239.7734375 C328.18695865 212.97365622 328.18695865 212.97365622 310 190 C308.40757783 188.23733532 306.8243067 186.466363 305.25 184.6875 C283.55654872 160.38279995 253.91009538 144.13050052 226 128 C225.15840332 127.51354004 224.31680664 127.02708008 223.44970703 126.52587891 C208.28300567 117.87839967 192.03578215 111.41865401 175.91729736 104.7890625 C174.17028622 104.07008118 172.42466606 103.34772234 170.67919922 102.625 C156.80665973 96.89605967 142.76638573 91.63301834 128.6875 86.4375 C127.8370108 86.12337158 126.98652161 85.80924316 126.11026001 85.4855957 C123.68261862 84.59040128 121.25372492 83.69871331 118.82421875 82.80859375 C118.09306854 82.5392955 117.36191833 82.26999725 116.60861206 81.99253845 C113.42881327 80.83257679 110.29205242 79.78210572 107 79 C106.67 79.66 106.34 80.32 106 81 C97.86772124 79.01531169 90.11461744 76.28223639 82.32556152 73.24642944 C80.17887259 72.4097788 78.02970767 71.57977811 75.87988281 70.7512207 C72.68203059 69.51813327 69.48521717 68.28240251 66.2890625 67.04492188 C57.46653274 63.63122519 48.63371653 60.24428257 39.80065918 56.85794067 C36.84063369 55.72227326 33.88168096 54.58384771 30.92285156 53.44506836 C27.1664317 51.99984884 23.40467081 50.56995511 19.63867188 49.14990234 C15.73708467 47.67645234 11.86612684 46.14154706 8.00195312 44.57275391 C6.04838647 43.80448037 4.09461712 43.03672201 2.140625 42.26953125 C1.25453552 41.89632248 0.36844604 41.52311371 -0.54449463 41.13859558 C-6.0609542 39.01501407 -9.34924532 38.74760856 -14.83831787 41.0269928 C-15.55167297 41.34808517 -16.26502808 41.66917755 -17 42 C-18.3654577 42.50757878 -19.73428462 43.00619266 -21.10644531 43.49536133 C-22.5143099 44.02255058 -23.92151192 44.55151184 -25.328125 45.08203125 C-26.10283646 45.37271988 -26.87754791 45.66340851 -27.67573547 45.96290588 C-30.20113769 46.91105793 -32.72560266 47.86167609 -35.25 48.8125 C-37.02723172 49.48071304 -38.80449459 50.14884324 -40.58178711 50.81689453 C-45.1584578 52.53791445 -49.73416807 54.26147205 -54.30950928 55.98602295 C-56.91139209 56.96660595 -59.51352422 57.94652444 -62.11572266 58.92626953 C-66.93222473 60.74010636 -71.74776236 62.55648489 -76.5625 64.375 C-77.71329041 64.8095752 -77.71329041 64.8095752 -78.8873291 65.25292969 C-89.38374842 69.21969382 -99.85632748 73.23938901 -110.26782227 77.42529297 C-114.15699849 78.97340799 -117.82643072 80.40988467 -122 81 C-122.33 80.01 -122.66 79.02 -123 78 C-123.88558594 78.36279053 -124.77117187 78.72558105 -125.68359375 79.09936523 C-134.62372646 82.73397019 -143.6443884 86.05618683 -152.74475098 89.26470947 C-170.45495616 95.5296646 -187.79671426 102.459358 -205 110 C-206.10327637 110.48210937 -207.20655273 110.96421875 -208.34326172 111.4609375 C-222.31703091 117.60642506 -235.78282005 124.36728201 -249 132 C-250.05654785 132.60505371 -251.1130957 133.21010742 -252.20166016 133.83349609 C-266.69597722 142.15834143 -280.70219514 150.83705054 -294 161 C-295.56622918 162.18512988 -297.13263957 163.37002031 -298.69921875 164.5546875 C-302.24603153 167.246762 -305.78603101 169.94698651 -309.30053711 172.68115234 C-310.76090581 173.81445384 -312.2346731 174.93045249 -313.7109375 176.04296875 C-316.27869574 178.23827059 -318.23345112 180.58942556 -320.3125 183.25 C-323.02642118 186.65807594 -325.71621751 189.75965417 -328.9375 192.6875 C-345.4851261 209.00755561 -355.27276403 235.17193794 -364.22558594 256.22216797 C-365.30681194 258.704352 -366.50448459 261.12752043 -367.6875 263.5625 C-369.6768117 267.97124485 -371.25026079 272.45010029 -372.6875 277.0625 C-372.99143677 277.98881226 -372.99143677 277.98881226 -373.30151367 278.93383789 C-377.6920265 293.76120601 -377.48007878 310.33497925 -378.25390625 325.671875 C-378.36020057 327.69446679 -378.46705884 329.71702901 -378.57444763 331.73956299 C-378.85293239 337.00413365 -379.12582752 342.26897602 -379.39685059 347.53393555 C-379.83290522 355.99988646 -380.2745266 364.46553525 -380.72208977 372.93088531 C-380.87629823 375.87213181 -381.02615797 378.8135777 -381.17567444 381.75506592 C-381.27001649 383.5564464 -381.36452546 385.35781815 -381.45922852 387.15917969 C-381.51925301 388.37480591 -381.51925301 388.37480591 -381.58049011 389.61499023 C-381.80546525 393.81068987 -382.21190775 397.86270268 -383 402 C-391.39480984 397.80259508 -396.54813883 379.25391469 -399.34127808 370.98266602 C-404.18518813 354.5259304 -403.52050283 337.12519823 -403.375 320.125 C-403.37075264 319.28224644 -403.36650528 318.43949287 -403.36212921 317.57120132 C-403.22229493 290.74885928 -401.99977183 263.89704454 -391 239 C-390.42302402 237.64645269 -389.84754538 236.2922663 -389.2734375 234.9375 C-387.83287858 231.56610624 -386.34680446 228.21743459 -384.83935547 224.87548828 C-384.04471639 223.09991602 -383.27358311 221.31387828 -382.50390625 219.52734375 C-379.3898834 212.44695032 -375.7439275 206.15666204 -371.28125 199.84521484 C-369.79700017 197.70764621 -368.36864677 195.53674771 -366.9375 193.36328125 C-358.0219441 180.00158651 -347.9247502 168.84785176 -335.796875 158.33984375 C-332.89365662 155.82177489 -330.23251018 153.20230031 -327.625 150.375 C-321.21700269 143.90830348 -313.85632652 138.84614654 -306.39550781 133.66894531 C-304.08033264 132.05596759 -301.78511988 130.41782332 -299.4921875 128.7734375 C-287.78851525 120.46996876 -275.5055049 113.45803106 -262.91210938 106.59863281 C-260.29516835 105.16203574 -257.69830013 103.69725214 -255.109375 102.2109375 C-226.44934083 85.79099629 -194.6396513 74.14818147 -163.51953125 63.296875 C-155.71866971 60.57392167 -147.99709585 57.64590956 -140.28198242 54.68994141 C-139.3510376 54.33593262 -138.42009277 53.98192383 -137.4609375 53.6171875 C-136.23576416 53.14708252 -136.23576416 53.14708252 -134.98583984 52.66748047 C-133 52 -133 52 -131 52 C-131.33 50.02 -131.66 48.04 -132 46 C-130.94353271 45.57785721 -129.88706543 45.15571442 -128.79858398 44.72077942 C-118.68346163 40.67884226 -108.56873396 36.63591878 -98.45436096 32.59210682 C-92.2460196 30.11000042 -86.03740949 27.62856827 -79.82849121 25.14790535 C-76.81279857 23.94269469 -73.7975058 22.73648742 -70.78222656 21.53024292 C-66.81211335 19.94237899 -62.8399278 18.35985878 -58.86621094 16.78103638 C-49.95306075 13.23317306 -41.07438596 9.63644293 -32.2734375 5.81787109 C-30.09006337 4.88304042 -27.90589534 3.95008887 -25.7215271 3.01758385 C-23.75851085 2.16747103 -21.81219099 1.2856001 -19.86450195 0.40107727 C-12.06403489 -2.92966057 -7.71748133 -3.54764 0 0 Z " fill="#000000" transform="translate(408,12)"/>
<path d="M0 0 C0.75365845 0.26399094 1.50731689 0.52798187 2.28381348 0.79997253 C4.591547 1.6099595 6.88384326 2.45498715 9.17578125 3.30859375 C10.03977539 3.62758636 10.90376953 3.94657898 11.79394531 4.27523804 C14.63487881 5.32555171 17.47390237 6.38089061 20.3125 7.4375 C21.29157318 7.8016098 22.27064636 8.1657196 23.27938843 8.54086304 C27.4639402 10.09748142 31.64816208 11.65496802 35.83113098 13.21583557 C42.89636387 15.85099339 49.97022791 18.46157417 57.04963684 21.05839539 C61.94747134 22.85825018 66.84022855 24.67163091 71.73202515 26.48782349 C74.11820808 27.37064507 76.50642328 28.24799304 78.89663696 29.11984253 C82.24533627 30.34255868 85.58613229 31.5848463 88.92578125 32.83203125 C89.93398926 33.19493256 90.94219727 33.55783386 91.98095703 33.93173218 C93.35223755 34.45049423 93.35223755 34.45049423 94.7512207 34.97973633 C95.55179398 35.27487625 96.35236725 35.57001617 97.17720032 35.87409973 C99 37 99 37 99.60050964 39.05908203 C99.73234146 39.69958496 99.86417328 40.34008789 100 41 C102.72037856 42.16776065 102.72037856 42.16776065 106 43 C108.25882966 43.91202294 110.5082418 44.84756698 112.75 45.80078125 C113.71333755 46.20953995 113.71333755 46.20953995 114.69613647 46.6265564 C116.79843782 47.5195084 118.89923175 48.41594787 121 49.3125 C122.47993417 49.94192203 123.95991534 50.57123354 125.43994141 51.20043945 C132.6044719 54.25003125 139.75959362 57.32042102 146.8984375 60.4296875 C147.83515038 60.83765312 147.83515038 60.83765312 148.79078674 61.25386047 C151.27573632 62.33652392 153.76058247 63.41942244 156.2449646 64.50338745 C164.88005685 68.2674671 173.56816878 71.87220886 182.3125 75.375 C225.86796376 92.91099224 225.86796376 92.91099224 245 105 C245.7213916 105.44907715 246.4427832 105.8981543 247.18603516 106.36083984 C257.40593502 112.76992959 266.3551309 119.59728409 275 128 C276.48688883 129.36667648 277.98575037 130.71921029 279.48657227 132.07055664 C282.0152182 134.35445543 284.5091445 136.6750389 287 139 C287.48968262 139.4542334 287.97936523 139.9084668 288.48388672 140.37646484 C296.77996757 148.13643232 303.60764894 156.68597835 310.33862305 165.81835938 C312.16096455 168.21137094 314.08068532 170.50777837 316.00390625 172.8203125 C320.13448323 177.96012614 323.21668471 183.37937314 326.1875 189.25 C326.70578369 190.26723145 327.22406738 191.28446289 327.75805664 192.33251953 C346.62060697 229.91397393 345.51702014 272.9671604 345 314 C345.94875 313.34 346.8975 312.68 347.875 312 C351 310 351 310 353 310 C357.89491253 375.67865122 357.89491253 375.67865122 347.234375 389.3828125 C342.08214025 395.29723165 335.79214078 400.03680359 329.10107422 404.08544922 C326.39108754 405.75854917 324.11320852 407.47446772 321.75390625 409.59765625 C319 412 319 412 317 412 C317 384.94 317 357.88 317 330 C317.99 329.67 318.98 329.34 320 329 C319.93810335 320.85296641 319.86052749 312.70628153 319.76428509 304.55958843 C319.72003346 300.77453019 319.68068605 296.98956852 319.65356445 293.2043457 C319.53345033 276.9449054 319.37950978 260.97828813 316 245 C315.81236084 244.02426025 315.62472168 243.04852051 315.43139648 242.04321289 C314.96899587 239.73886024 314.44922364 237.46626391 313.875 235.1875 C313.57130493 233.9811792 313.57130493 233.9811792 313.26147461 232.75048828 C311.48708692 226.10817028 309.14196053 219.74375176 306.5625 213.375 C306.20333496 212.48707764 305.84416992 211.59915527 305.47412109 210.68432617 C296.59658437 189.62243957 281.22061038 171.6874374 264.9140625 155.9765625 C263 154 263 154 261.76123047 152.45947266 C257.70869429 147.43812487 253.12216343 143.84454792 247.875 140.125 C246.16468788 138.8967751 244.45505055 137.66761 242.74609375 136.4375 C241.9247998 135.84839844 241.10350586 135.25929687 240.25732422 134.65234375 C238.36862211 133.26982851 236.53483936 131.85509545 234.72265625 130.375 C226.50638627 123.7374523 217.69552187 119.95302487 208 116 C206.19904919 115.25301283 204.39827491 114.50559996 202.59765625 113.7578125 C176.09406485 102.82110934 149.40418163 92.31938853 122.76367188 81.72184753 C119.50822837 80.42665794 116.25347279 79.12974507 112.9987793 77.83267212 C110.81051155 76.96158785 108.62110702 76.09340787 106.43164062 75.2253418 C105.11582606 74.70115808 103.80006722 74.17683446 102.484375 73.65234375 C101.36772461 73.20882568 100.25107422 72.76530762 99.10058594 72.30834961 C95.99322244 70.99714008 92.99866731 69.54193798 90 68 C90 68.99 90 69.98 90 71 C81.94822813 68.9639981 74.2159929 66.37447541 66.44140625 63.46484375 C64.66660133 62.8076107 64.66660133 62.8076107 62.85594177 62.13710022 C59.72062594 60.97539308 56.58679002 59.80987025 53.45373535 58.64208984 C44.22533292 55.20399917 34.98796381 51.79053482 25.74591064 48.38934326 C22.54736769 47.20301648 19.35625158 45.99991806 16.16778278 44.78696728 C14.24984957 44.06027782 12.32890878 43.34227944 10.40647888 42.62757874 C8.01310427 41.73699428 5.62487315 40.83241314 3.24305725 39.91136169 C-9.04948752 35.38932868 -16.74102785 38.2962576 -28.7109375 42.77734375 C-30.04554555 43.26850076 -31.38048379 43.75876134 -32.71572876 44.2481842 C-36.23004239 45.53906883 -39.73974811 46.84204988 -43.24859619 48.14770508 C-46.72032219 49.43718338 -50.19627097 50.71516079 -53.671875 51.99414062 C-63.78983237 55.72136865 -73.90419334 59.45827401 -83.99806023 63.25033092 C-85.91073971 63.96858004 -87.82410819 64.68496143 -89.73770142 65.40077209 C-92.0921256 66.28233663 -94.44505323 67.16791177 -96.79623413 68.05809021 C-98.35623642 68.64143883 -98.35623642 68.64143883 -99.94775391 69.23657227 C-100.85554596 69.57874283 -101.76333801 69.92091339 -102.69863892 70.27345276 C-105 71 -105 71 -108 71 C-108 70.01 -108 69.02 -108 68 C-108.97453125 68.44988281 -109.9490625 68.89976562 -110.953125 69.36328125 C-119.82623916 73.4085355 -128.78574995 77.15545774 -137.875 80.6875 C-158.59367953 88.742965 -179.18254523 97.12307591 -199.78125 105.47949219 C-204.54817324 107.412895 -209.31814842 109.33857462 -214.0897522 111.26039124 C-217.22438627 112.52479462 -220.35616412 113.79613895 -223.48699951 115.06991577 C-224.88627609 115.63773149 -226.28666975 116.20280403 -227.68829346 116.76480103 C-238.02427725 120.91250404 -247.37754437 125.68900657 -256.125 132.625 C-257.22544919 133.49359984 -258.32706897 134.36071813 -259.4296875 135.2265625 C-260.00299805 135.67676758 -260.57630859 136.12697266 -261.16699219 136.59082031 C-263.10978446 138.08440009 -265.08360364 139.52635216 -267.0703125 140.9609375 C-274.11430654 146.0657343 -280.45428488 151.01780244 -286.078125 157.73046875 C-287.86493515 159.84050268 -289.72967876 161.67992794 -291.75 163.5625 C-305.29434635 176.97167323 -315.08346755 193.66316865 -323.3125 210.6875 C-323.72137451 211.53022461 -324.13024902 212.37294922 -324.55151367 213.24121094 C-336.82884159 239.31632582 -337.77953555 267.40730363 -337.34332275 295.6550293 C-337.2908011 299.43783655 -337.26905497 303.22083434 -337.24414062 307.00390625 C-337.19160367 314.33642361 -337.10708144 321.66805362 -337 329 C-336.34 329.33 -335.68 329.66 -335 330 C-335 357.06 -335 384.12 -335 412 C-339.46578049 409.76710975 -342.62114406 406.97174218 -346.13432312 403.51667786 C-349.5388904 400.18839933 -352.99755302 397.22237384 -356.84082031 394.40869141 C-364.21085173 388.63458141 -370.83667797 382.78764788 -372.31690884 373.1130476 C-373.26945795 364.00399201 -372.79871679 354.83374927 -372.30462646 345.70959473 C-372.1074827 341.67487663 -372.02291671 337.63779107 -371.92773438 333.59960938 C-371.72611758 325.72671105 -371.4035806 317.86512549 -371 310 C-368.69 311.32 -366.38 312.64 -364 314 C-363.98160568 313.3834404 -363.96321136 312.7668808 -363.94425964 312.13163757 C-361.17305277 220.26446981 -361.17305277 220.26446981 -344 189 C-343.5973291 188.25250488 -343.1946582 187.50500977 -342.77978516 186.73486328 C-338.04303327 178.01600294 -332.92866231 170.24960067 -326.37890625 162.77734375 C-324.01097596 160.0128143 -321.90748227 157.16245555 -319.8125 154.1875 C-315.0255658 147.50114101 -309.42538362 142.33233489 -303.21484375 137.00390625 C-300.63247108 134.66747384 -298.23589147 132.18827117 -295.8125 129.6875 C-285.52641376 119.25704139 -273.6562105 111.62949281 -261.09716797 104.24023438 C-259.29425077 103.17401559 -257.50682846 102.08167281 -255.72265625 100.984375 C-236.10561728 89.20920407 -214.51009992 80.8713084 -193.324646 72.40600586 C-180.72006198 67.36879148 -168.26991263 62.11603696 -155.91845703 56.48730469 C-148.14285328 52.9458511 -140.32375984 49.53802981 -132.4375 46.25 C-131.43702637 45.83113525 -130.43655273 45.41227051 -129.40576172 44.98071289 C-121.92713544 41.88527236 -121.92713544 41.88527236 -118 41 C-117.94443939 40.38956848 -117.88887878 39.77913696 -117.83163452 39.15020752 C-117 37 -117 37 -114.7394104 35.71551514 C-113.73437469 35.34629944 -112.72933899 34.97708374 -111.69384766 34.59667969 C-110.54992554 34.16761826 -109.40600342 33.73855682 -108.22741699 33.29649353 C-106.95639081 32.83803225 -105.68526973 32.37983401 -104.4140625 31.921875 C-103.09635796 31.43387526 -101.77918795 30.94443005 -100.46252441 30.45362854 C-96.92306053 29.13880551 -93.37673662 27.84356755 -89.82840729 26.55289078 C-86.1634712 25.21743936 -82.50352872 23.86844848 -78.84326172 22.52026367 C-74.43330421 20.89643311 -70.02296301 19.27372891 -65.6098938 17.65837097 C-56.87603106 14.45736941 -48.18786904 11.15957668 -39.53125 7.75390625 C-36.62907654 6.62439092 -33.72612576 5.49689786 -30.82293701 4.36999512 C-29.03845191 3.67054058 -27.25777438 2.96128514 -25.48126221 2.24182129 C-23.04137201 1.25533524 -20.58993039 0.30585915 -18.1328125 -0.63671875 C-17.44699097 -0.9259874 -16.76116943 -1.21525604 -16.05456543 -1.51329041 C-10.06526714 -3.74125383 -5.81131437 -2.21334718 0 0 Z " fill="#000000" transform="translate(409,68)"/>
<path d="M0 0 C1.47746097 0.57773922 2.95541772 1.15421199 4.43383789 1.72949219 C6.76168983 2.63551585 9.0891793 3.54237904 11.41517639 4.45315552 C19.82265455 7.74415908 28.26553731 10.94013409 36.71252441 14.12808228 C39.16017507 15.05218357 41.6070367 15.9783463 44.05371094 16.9050293 C45.55531482 17.47320723 47.05694125 18.04132558 48.55859375 18.609375 C49.58752998 18.99912254 49.58752998 18.99912254 50.63725281 19.39674377 C53.32959222 20.41362383 56.01932377 21.40227459 58.75 22.3125 C58.75 23.9625 58.75 25.6125 58.75 27.3125 C73.49992605 33.38930112 88.2957825 39.34113552 103.13574219 45.19418335 C110.64328591 48.15544851 118.1486185 51.1223214 125.65405273 54.08892822 C127.77131225 54.92570572 129.88866699 55.7622423 132.00610352 56.59857178 C138.76168604 59.26738451 145.51441454 61.94323914 152.2638855 64.62747192 C154.43562311 65.48996654 156.60823059 66.35027456 158.7817688 67.20822144 C190.89778988 79.88938209 190.89778988 79.88938209 201.625 89.3125 C202.305625 89.89 202.98625 90.4675 203.6875 91.0625 C205.04822061 92.22144075 206.40156931 93.38909775 207.74707031 94.56567383 C209.08858949 95.73566039 210.44235931 96.8917389 211.80761719 98.03393555 C216.52159202 102.01874203 220.50232635 106.22232461 224.25 111.125 C224.80606934 111.85203125 225.36213867 112.5790625 225.93505859 113.328125 C231.61979832 121.05079029 235.39357675 129.37377954 238.75 138.3125 C239.0137206 138.9670111 239.2774412 139.6215222 239.54915333 140.29586697 C241.87100223 146.47966394 242.16029644 152.05493768 242.09057617 158.61547852 C242.09101425 159.70919266 242.09145233 160.8029068 242.09190369 161.92976379 C242.08982652 165.51716443 242.0665456 169.10408803 242.04296875 172.69140625 C242.037369 175.1896082 242.03310069 177.68781346 242.03010559 180.1860199 C242.01985162 186.0719356 241.99624753 191.95767734 241.96605712 197.84352201 C241.92910607 205.2088022 241.91309451 212.57410384 241.89648438 219.93945312 C241.86437249 233.06388771 241.81379384 246.18818311 241.75 259.3125 C243.4 258.9825 245.05 258.6525 246.75 258.3125 C246.75 288.0125 246.75 317.7125 246.75 348.3125 C213.75 364.3125 213.75 364.3125 211.75 364.3125 C211.72687759 352.85599984 211.70908543 341.39950519 211.69818783 329.94298649 C211.69295878 324.62384787 211.68586073 319.30472516 211.67456055 313.9855957 C211.66373245 308.85686015 211.65772333 303.72813994 211.65512276 298.59939384 C211.65326837 296.63808386 211.64964749 294.67677476 211.64426994 292.71547127 C211.63706054 289.97834553 211.63600901 287.24128403 211.63647461 284.50415039 C211.63287933 283.68488068 211.62928406 282.86561096 211.62557983 282.02151489 C211.63594784 276.42655216 211.63594784 276.42655216 212.75 275.3125 C212.85417321 273.89845534 212.8896124 272.47927318 212.89717102 271.06141663 C212.90432632 270.14366959 212.91148163 269.22592255 212.91885376 268.28036499 C212.92154266 267.26495636 212.92423157 266.24954773 212.92700195 265.20336914 C212.93357315 264.13973648 212.94014435 263.07610382 212.94691467 261.98023987 C212.96672781 258.43604466 212.97833653 254.89189227 212.98828125 251.34765625 C212.99235678 250.13539305 212.9964323 248.92312984 213.00063133 247.67413139 C213.02153981 241.24084517 213.035813 234.80758049 213.04516602 228.37426758 C213.05515255 221.76537955 213.09045898 215.15678151 213.13033772 208.54801273 C213.15666776 203.4405816 213.16487299 198.33322963 213.16844749 193.22573662 C213.1732821 190.79280756 213.18480532 188.35988127 213.20348549 185.92701912 C213.30493655 171.82159696 212.63017268 158.91405615 208.75 145.3125 C208.45994583 144.26759903 208.16989166 143.22269806 207.87104797 142.14613342 C203.90626189 128.74786003 191.91214923 111.33711252 179.77388 104.14096069 C177.66985293 103.1216778 175.54941085 102.20038296 173.38671875 101.3125 C172.60278244 100.97787247 171.81884613 100.64324493 171.01115417 100.29847717 C163.68513632 97.20409053 156.26699143 94.34942111 148.8114624 91.584198 C144.80631622 90.09858627 140.80807781 88.59452262 136.80859375 87.09375 C135.98115662 86.78384628 135.15371948 86.47394257 134.3012085 86.15464783 C126.03425116 83.05451376 117.7980265 79.8762427 109.56298828 76.69250488 C94.27580046 70.78261218 78.94813195 64.99503876 63.56201172 59.34741211 C62.86153214 59.08941833 62.16105255 58.83142456 61.43934631 58.56561279 C59.55961666 57.87349691 57.67889343 57.18408118 55.7980957 56.49487305 C53.35560416 55.54741717 51.05885642 54.54225185 48.75 53.3125 C48.75 53.9725 48.75 54.6325 48.75 55.3125 C42.28586073 53.99362735 36.20139633 52.22618228 29.9921875 50.01171875 C29.0860672 49.69346634 28.1799469 49.37521393 27.24636841 49.0473175 C24.37084756 48.03638183 21.49784419 47.01851425 18.625 46 C16.72153147 45.32827341 14.81788687 44.65704552 12.9140625 43.98632812 C11.51815887 43.49436447 11.51815887 43.49436447 10.09405518 42.99246216 C7.34367245 42.02542588 4.59135208 41.06406096 1.83886719 40.10302734 C-1.33448113 38.99399454 -4.49382025 37.85642046 -7.64355469 36.68212891 C-8.94719198 36.21105917 -10.25089763 35.74017854 -11.5546875 35.26953125 C-13.19026611 34.66008667 -13.19026611 34.66008667 -14.85888672 34.03833008 C-22.68047416 32.36420629 -29.79919408 34.88681882 -37.15625 37.48046875 C-38.079823 37.79776443 -39.003396 38.11506012 -39.95495605 38.44197083 C-42.88973438 39.45259809 -45.81983392 40.47608749 -48.75 41.5 C-50.68460455 42.16816169 -52.6194985 42.83548606 -54.5546875 43.50195312 C-61.82893897 46.01260721 -69.09921338 48.5328799 -76.33984375 51.13916016 C-77.12484253 51.42060379 -77.90984131 51.70204742 -78.71862793 51.99201965 C-80.176314 52.5159559 -81.63255671 53.04393254 -83.08703613 53.57670593 C-85.95709541 54.60806302 -88.17304269 55.3125 -91.25 55.3125 C-91.25 54.6525 -91.25 53.9925 -91.25 53.3125 C-92.11020752 53.66223877 -92.97041504 54.01197754 -93.85668945 54.37231445 C-103.4724874 58.2533321 -113.15379591 61.93153803 -122.87265015 65.54568481 C-136.52935197 70.6269951 -150.1444297 75.78946665 -163.68823242 81.1652832 C-175.22884726 85.73218926 -186.84398606 90.09933931 -198.46557617 94.45532227 C-202.73368465 96.05724591 -206.99466014 97.67697273 -211.25 99.3125 C-212.4349707 99.7669751 -213.61994141 100.2214502 -214.84082031 100.68969727 C-215.89881836 101.11049561 -216.95681641 101.53129395 -218.046875 101.96484375 C-219.39797363 102.49839478 -219.39797363 102.49839478 -220.77636719 103.04272461 C-225.52151842 105.4785252 -228.82934505 109.30141306 -232.25 113.3125 C-232.92675781 114.08722656 -233.60351562 114.86195313 -234.30078125 115.66015625 C-248.87413924 133.06329249 -255.61957064 152.15005349 -255.49291992 174.82666016 C-255.49481827 175.91906006 -255.49671661 177.01145996 -255.49867249 178.13696289 C-255.50234514 181.70857162 -255.4917319 185.27997221 -255.48046875 188.8515625 C-255.47927554 191.3445127 -255.47882409 193.83746335 -255.4790802 196.33041382 C-255.47752177 201.53329312 -255.4692765 206.73610299 -255.45581055 211.93896484 C-255.44043352 217.95755081 -255.43481553 223.97605402 -255.4355461 229.99465716 C-255.43615528 235.7969679 -255.43095599 241.59925715 -255.42275429 247.40156174 C-255.41956415 249.8680547 -255.41759941 252.33454955 -255.41686058 254.80104446 C-255.41470567 258.23149126 -255.40598256 261.66185586 -255.39526367 265.09228516 C-255.39571686 266.1186911 -255.39617004 267.14509705 -255.39663696 268.2026062 C-255.39237198 269.13046936 -255.38810699 270.05833252 -255.38371277 271.01431274 C-255.38203692 271.82503046 -255.38036108 272.63574818 -255.37863445 273.4710331 C-255.451123 275.33008149 -255.451123 275.33008149 -254.25 276.3125 C-254.15483789 279.0513842 -254.12445406 281.76497941 -254.13647461 284.50415039 C-254.13632858 285.36261063 -254.13618256 286.22107086 -254.1360321 287.10554504 C-254.13673153 289.95710738 -254.1445253 292.80860525 -254.15234375 295.66015625 C-254.15420782 297.63170842 -254.15563178 299.60326105 -254.15663147 301.57481384 C-254.16045749 306.77476267 -254.17028848 311.97468375 -254.18133545 317.17462158 C-254.19154778 322.47643661 -254.19612871 327.7782561 -254.20117188 333.08007812 C-254.21191067 343.49089763 -254.22898809 353.90169651 -254.25 364.3125 C-257.13688009 363.03171499 -260.02342484 361.75017589 -262.90991211 360.46850586 C-264.129296 359.92753391 -264.129296 359.92753391 -265.3733139 359.37563324 C-270.8793077 356.93025983 -276.36613822 354.45090955 -281.8125 351.875 C-282.53373047 351.53791016 -283.25496094 351.20082031 -283.99804688 350.85351562 C-289.12462333 348.43787667 -289.12462333 348.43787667 -290.25 347.3125 C-290.34517803 344.54311034 -290.37554265 341.79872841 -290.36352539 339.02905273 C-290.36367142 338.16083893 -290.36381744 337.29262512 -290.3639679 336.39810181 C-290.36326846 333.51407414 -290.35547463 330.6301102 -290.34765625 327.74609375 C-290.34579218 325.75212133 -290.34436823 323.75814845 -290.34336853 321.76417542 C-290.33954248 316.50504298 -290.32971145 311.24593797 -290.31866455 305.98681641 C-290.3084523 300.62467825 -290.30387131 295.26253569 -290.29882812 289.90039062 C-290.28808926 279.37108167 -290.2710118 268.84179311 -290.25 258.3125 C-288.6 258.6425 -286.95 258.9725 -285.25 259.3125 C-285.25037703 258.75003067 -285.25075405 258.18756134 -285.2511425 257.60804749 C-285.25829517 243.84936232 -285.23166707 230.09108803 -285.1697216 216.33253479 C-285.14076089 209.67859445 -285.12259933 203.02512322 -285.12988281 196.37109375 C-285.13651356 189.93875888 -285.11377761 183.50711299 -285.07144547 177.07492065 C-285.06038086 174.6320135 -285.05955334 172.18903591 -285.06957626 169.74612427 C-285.12007764 155.61571405 -284.47068536 144.14979029 -278.25 131.3125 C-277.70570243 130.07736781 -277.16652744 128.83996532 -276.63253784 127.6003418 C-270.73479176 114.18141566 -260.68131649 102.38380276 -249.25 93.3125 C-248.19169077 92.42308439 -247.13448371 91.53235637 -246.078125 90.640625 C-244.90758876 89.67545741 -243.73571195 88.71191334 -242.5625 87.75 C-242.04695557 87.31453857 -241.53141113 86.87907715 -241.00024414 86.43041992 C-229.28456713 77.05962562 -213.98066812 72.23822238 -200.1875 66.8125 C-197.17284326 65.61835503 -194.15910029 64.42192337 -191.14538574 63.22540283 C-189.11384502 62.418995 -187.08202519 61.61328996 -185.04992676 60.80828857 C-175.72063727 57.11096037 -166.41958005 53.34606412 -157.125 49.5625 C-147.85587269 45.79073758 -138.58049894 42.03683053 -129.28125 38.33984375 C-128.46608917 38.01543304 -127.65092834 37.69102234 -126.81106567 37.35678101 C-122.90037104 35.80076467 -118.98831473 34.24835322 -115.07373047 32.70214844 C-113.68191282 32.14922276 -112.29014564 31.59617002 -110.8984375 31.04296875 C-109.68333496 30.56239014 -108.46823242 30.08181152 -107.21630859 29.58666992 C-104.14555487 28.37379349 -104.14555487 28.37379349 -101.25 26.3125 C-101.25 24.9925 -101.25 23.6725 -101.25 22.3125 C-100.48937256 22.02922852 -100.48937256 22.02922852 -99.71337891 21.74023438 C-82.19832885 15.2098468 -64.73185405 8.5538599 -47.27142334 1.87905884 C-44.74074111 0.91445687 -42.20720005 -0.04231912 -39.67333984 -0.99853516 C-37.04878798 -1.99130735 -34.45512395 -3.01683689 -31.86181641 -4.09130859 C-20.07684812 -8.86711735 -11.27750168 -4.48160992 0 0 Z " fill="#000000" transform="translate(421.25,171.6875)"/>
<path d="M0 0 C1.65647935 0.56570017 3.31321891 1.13063896 4.97021484 1.69482422 C6.71799479 2.3123149 8.46486637 2.93238124 10.2109375 3.5546875 C11.16589615 3.89277435 12.1208548 4.23086121 13.10475159 4.57919312 C18.33621796 6.43310602 23.56359751 8.29847865 28.79125977 10.16308594 C29.86031052 10.54436646 30.92936127 10.92564697 32.0308075 11.31848145 C34.19673746 12.0910964 36.36251898 12.86412763 38.52815247 13.63757324 C44.50128962 15.76726549 50.48323911 17.86719668 56.48120117 19.92593384 C59.85339316 21.08494021 63.22029729 22.25881035 66.58648682 23.43511963 C68.14806908 23.9763768 69.71217183 24.5104185 71.27874756 25.03704834 C73.43103843 25.76146891 75.57323739 26.51031126 77.71484375 27.265625 C78.91230225 27.67586914 80.10976074 28.08611328 81.34350586 28.50878906 C82.22014893 29.00088867 83.09679199 29.49298828 84 30 C84.68310547 32.56176758 84.68310547 32.56176758 85 35 C87.76719916 36.43997442 90.25300097 37.44742748 93.1875 38.4375 C95.11336327 39.12867776 97.03913707 39.82010483 98.96484375 40.51171875 C100.06554199 40.8989209 101.16624023 41.28612305 102.30029297 41.68505859 C106.44393697 43.15778306 110.56865552 44.67702083 114.69140625 46.20703125 C116.25853764 46.78802421 117.82567644 47.36899715 119.39282227 47.94995117 C120.18907013 48.2451767 120.98531799 48.54040222 121.80569458 48.84457397 C132.14073762 52.67290773 142.48236402 56.4789554 152.875 60.1484375 C170.04294851 66.22553629 186.65245179 72.91001789 203 81 C204.44632813 81.70987061 204.44632813 81.70987061 205.921875 82.43408203 C222.05263724 90.40856234 236.1178358 99.74805776 249.54638672 111.70898438 C250.84089579 112.8586928 252.15547476 113.98571307 253.47265625 115.109375 C266.16458816 126.72069167 275.13008362 142.78737251 284.1875 157.25 C284.96154175 158.47940308 284.96154175 158.47940308 285.7512207 159.73364258 C287.22293449 162.1283655 288.62756196 164.54713202 290 167 C290.64122803 168.12825195 290.64122803 168.12825195 291.29541016 169.27929688 C302.70401227 191.59063543 300.61982354 217.10068203 300.34332275 241.37695312 C300.29148407 246.41916345 300.269193 251.4615043 300.24414062 256.50390625 C300.19107315 266.33627417 300.10613319 276.1680713 300 286 C300.99 286 301.98 286 303 286 C303.3486828 296.89160666 303.61462173 307.78187177 303.77718258 318.67793751 C303.8552397 323.73872267 303.96093633 328.79567151 304.1315918 333.85424805 C304.29548863 338.74350289 304.38443512 343.62908879 304.42315865 348.52087975 C304.45072083 350.37961298 304.50455691 352.23816114 304.58595085 354.09531593 C305.18089316 368.2423852 305.18089316 368.2423852 301.53556824 372.85169029 C297.98790819 376.17865268 294.03206866 378.67206685 289.78152275 381.00391388 C287.41711524 382.32590289 285.25271683 383.87983156 283.0703125 385.48046875 C281.75685638 386.38520972 280.44184591 387.28769999 279.125 388.1875 C278.43792969 388.66251953 277.75085938 389.13753906 277.04296875 389.62695312 C272.12698413 393 272.12698413 393 271 393 C271 362.97 271 332.94 271 302 C271.66 302 272.32 302 273 302 C272.98505733 288.7334954 272.94316098 275.46736579 272.86790943 262.20105839 C272.83378218 256.03934532 272.80855171 249.87787646 272.80444336 243.71606445 C272.80012974 237.75708301 272.77141475 231.79865113 272.72656822 225.83984184 C272.71369057 223.57918958 272.70925051 221.31847121 272.71384621 219.05778694 C272.74433405 199.48629281 269.60420227 184.18282244 260 167 C259.59475098 166.26491211 259.18950195 165.52982422 258.77197266 164.77246094 C252.81986978 154.02640666 246.47906192 143.75134635 239 134 C238.1646875 132.90365234 238.1646875 132.90365234 237.3125 131.78515625 C228.30476891 120.77320499 216.85253337 112.69658592 204.32421875 106.21875 C201.77665183 104.88288298 199.26437761 103.49103076 196.75 102.09375 C194.85487593 101.06119718 192.95904528 100.0299401 191.0625 99 C190.23758057 98.53787109 189.41266113 98.07574219 188.56274414 97.59960938 C177.60279706 91.76506415 165.69311199 88.07085638 154 84 C151.72741486 83.20422385 149.45487255 82.40832537 147.18237305 81.61230469 C141.40052059 79.59170471 135.61347283 77.58646819 129.82397461 75.58789062 C126.30277457 74.37164076 122.78319771 73.15077238 119.26367188 71.9296875 C108.36328599 68.15605668 97.44747399 64.42754068 86.48046875 60.8515625 C85.56147293 60.5453598 84.64247711 60.2391571 83.69563293 59.92367554 C82.85401108 59.6531839 82.01238922 59.38269226 81.14526367 59.10400391 C80.41313156 58.86517487 79.68099945 58.62634583 78.92668152 58.38027954 C76.79344152 57.79443887 76.79344152 57.79443887 74 59 C71.15190125 58.2807312 71.15190125 58.2807312 67.6394043 57.08154297 C66.67761513 56.75731102 66.67761513 56.75731102 65.69639587 56.42652893 C63.56930606 55.70701793 61.44686044 54.97470682 59.32421875 54.2421875 C57.83772592 53.73631357 56.35097121 53.23120856 54.8639679 52.72683716 C50.93580822 51.39199383 47.01150152 50.04614894 43.08782959 48.69818115 C39.92451637 47.61333854 36.75871272 46.53588625 33.5927 45.45895195 C27.66346973 43.44209101 21.73461645 41.42397004 15.81144428 39.38937569 C14.47191639 38.93050168 13.13115377 38.47521457 11.78911877 38.02372551 C8.56442032 36.9299051 5.4035089 35.77250539 2.27041626 34.43707275 C-6.06660282 31.02065535 -10.68429672 30.63362442 -19 34 C-21.00694872 34.67018145 -23.01634543 35.33306612 -25.02783203 35.98950195 C-27.18910462 36.73539906 -29.34904699 37.48515898 -31.5078125 38.23828125 C-32.6727121 38.64153122 -33.83761169 39.04478119 -35.03781128 39.46025085 C-38.73471842 40.74096721 -42.42985923 42.02669742 -46.125 43.3125 C-48.58061832 44.1637313 -51.03634663 45.01464536 -53.4921875 45.86523438 C-54.68946472 46.28046356 -55.88674194 46.69569275 -57.12030029 47.12350464 C-59.48624539 47.9439895 -61.85249282 48.76360314 -64.21905518 49.58230591 C-69.28098639 51.3380444 -74.33328363 53.10866224 -79.35449219 54.97802734 C-80.14056854 55.26759811 -80.9266449 55.55716888 -81.73654175 55.85551453 C-83.14025497 56.37552225 -84.540377 56.90539614 -85.93557739 57.4478302 C-88.65984431 58.45295424 -90.49440367 59.11333767 -93.37207031 58.46826172 C-97.61725282 57.7118273 -101.12644921 59.41611123 -105.1171875 60.83984375 C-106.02608734 61.15296509 -106.93498718 61.46608643 -107.87142944 61.78869629 C-110.87672417 62.82685964 -113.87577979 63.88192852 -116.875 64.9375 C-118.97323509 65.66724158 -121.0718744 66.39582187 -123.17089844 67.12329102 C-126.44245546 68.25730752 -129.71364681 69.39228161 -132.98327637 70.53184509 C-140.60254486 73.184444 -148.24263471 75.76746127 -155.8984375 78.3125 C-159.01452533 79.35338877 -162.13035449 80.39504897 -165.24615479 81.4367981 C-167.21607887 82.0930592 -169.18719554 82.7457536 -171.15960693 83.39450073 C-184.27254636 87.71329633 -196.67558821 92.77384975 -209 99 C-210.04526855 99.52343994 -211.09053711 100.04687988 -212.16748047 100.58618164 C-214.56268449 101.80465786 -216.94075034 103.04912395 -219.3125 104.3125 C-220.08271484 104.71533203 -220.85292969 105.11816406 -221.64648438 105.53320312 C-228.4745034 109.14321833 -234.52966601 113.27901795 -240.375 118.3125 C-241.16390625 118.98442383 -241.16390625 118.98442383 -241.96875 119.66992188 C-243.06583442 120.60668357 -244.15831654 121.54885704 -245.24658203 122.49584961 C-246.45900473 123.53591314 -247.69070656 124.55376663 -248.93701172 125.55297852 C-254.51453947 130.13968122 -258.40354987 135.31171137 -262.375 141.3125 C-263.02130371 142.27510742 -263.66760742 143.23771484 -264.33349609 144.22949219 C-269.68695341 152.30561058 -274.54946762 160.58887702 -279.04101562 169.17138672 C-279.8689074 170.75002963 -280.72127528 172.31579179 -281.578125 173.87890625 C-287.51204062 185.01393466 -290.12920293 196.52255233 -290.20532227 209.02270508 C-290.22017166 210.53072693 -290.22017166 210.53072693 -290.23532104 212.06921387 C-290.26686065 215.38596253 -290.29166371 218.7027255 -290.31640625 222.01953125 C-290.33698228 224.32167428 -290.35797893 226.62381358 -290.37937927 228.9259491 C-290.43453285 234.98067202 -290.48397176 241.03542865 -290.53222656 247.09020996 C-290.5824906 253.2704569 -290.63815107 259.45065497 -290.69335938 265.63085938 C-290.80085884 277.75386448 -290.90232206 289.87691206 -291 302 C-290.34 302 -289.68 302 -289 302 C-289 331.7 -289 361.4 -289 392 C-292.71223186 390.51510726 -295.18615431 389.36378282 -298.36328125 387.171875 C-299.16830078 386.61886719 -299.97332031 386.06585938 -300.80273438 385.49609375 C-301.63095703 384.91988281 -302.45917969 384.34367187 -303.3125 383.75 C-304.53743164 382.90888672 -304.53743164 382.90888672 -305.78710938 382.05078125 C-308.20405949 380.38298938 -310.61255702 378.70987946 -313 377 C-314.01512161 376.57241898 -314.01512161 376.57241898 -315.05075073 376.13619995 C-317.83070751 374.70227875 -319.20775825 373.59386703 -321 371 C-322.16499345 364.54086489 -321.9301626 358.14271457 -321.78125 351.6015625 C-321.7663206 349.68202067 -321.75493688 347.76244826 -321.74694824 345.84286499 C-321.71646885 340.80160686 -321.6379428 335.76220617 -321.54931641 330.72167969 C-321.46733383 325.57382331 -321.43091031 320.42566541 -321.390625 315.27734375 C-321.30494389 305.18408175 -321.16848821 295.0921956 -321 285 C-320.01 285.33 -319.02 285.66 -318 286 C-318.0199855 284.46715111 -318.0199855 284.46715111 -318.04037476 282.90333557 C-318.16333258 273.15446564 -318.25257276 263.40575793 -318.31087303 253.65628147 C-318.34185612 248.64690274 -318.38370394 243.63816204 -318.45263672 238.62915039 C-318.84064181 209.65490722 -318.75330569 183.37835024 -303 158 C-302.06977186 156.44563592 -301.14010491 154.89093589 -300.2109375 153.3359375 C-280.5430686 120.91417165 -255.64597246 97.48494953 -221.33862305 81.08251953 C-218.46060474 79.70402965 -215.59018087 78.3113813 -212.72436523 76.90771484 C-201.68759629 71.54397492 -190.52052771 66.95922105 -179 62.75 C-177.26647582 62.10958573 -175.53324573 61.46837492 -173.80029297 60.82641602 C-170.26778003 59.51898932 -166.73364993 58.21608123 -163.19824219 56.91650391 C-158.2111714 55.08117357 -153.23335757 53.22178198 -148.2578125 51.35546875 C-107.28146919 36 -107.28146919 36 -103 36 C-103 34.02 -103 32.04 -103 30 C-102.41008774 29.79305511 -101.82017548 29.58611023 -101.21238708 29.37289429 C-96.06590284 27.56721729 -90.91991951 25.76012459 -85.77441406 23.95166016 C-80.86254984 22.22552849 -75.94892663 20.50452627 -71.03417969 18.78662109 C-59.67264314 14.8079196 -48.33481032 10.79339461 -37.08203125 6.515625 C-35.30234593 5.84668564 -33.52248535 5.17821235 -31.74243164 4.51025391 C-29.26845234 3.58178533 -26.80023051 2.64485379 -24.34274292 1.67352295 C-22.1072903 0.79010178 -19.86092778 -0.0570797 -17.609375 -0.8984375 C-16.66424797 -1.29056427 -16.66424797 -1.29056427 -15.70002747 -1.69061279 C-9.82058406 -3.81785741 -5.56902728 -2.06672761 0 0 Z " fill="#000000" transform="translate(409,121)"/>
<path d="M0 0 C1.73132927 0.65572998 1.73132927 0.65572998 3.49763489 1.32470703 C4.72391098 1.79763184 5.95018707 2.27055664 7.21362305 2.7578125 C8.49897144 3.24783684 9.78455391 3.73724759 11.07035828 4.22607422 C14.43724527 5.50809418 17.80067863 6.79894726 21.16351318 8.09155273 C23.91554672 9.1476897 26.66993961 10.1975875 29.42448139 11.24716187 C35.10967712 13.4135195 40.79302475 15.58472046 46.47265625 17.765625 C47.47746536 18.15121582 48.48227448 18.53680664 49.51753235 18.93408203 C51.9128418 19.8828125 51.9128418 19.8828125 53.9128418 20.8828125 C53.5828418 22.5328125 53.2528418 24.1828125 52.9128418 25.8828125 C53.70247314 26.14239746 53.70247314 26.14239746 54.50805664 26.40722656 C76.34645213 33.63117173 97.76874614 41.99960637 119.21459961 50.29745483 C124.55138344 52.3610989 129.89624421 54.40213649 135.24926758 56.42333984 C138.41728634 57.62071566 141.58034508 58.83060798 144.7409668 60.04736328 C146.21375317 60.61389599 147.68775646 61.17727334 149.1628418 61.73779297 C157.08929193 64.76697671 164.66350379 68.0529744 171.9753418 72.3828125 C172.55848145 72.72626709 173.14162109 73.06972168 173.74243164 73.42358398 C181.68323294 78.32605693 187.92017177 84.38707745 193.1003418 92.1328125 C193.6157251 92.90133545 194.1311084 93.6698584 194.66210938 94.46166992 C199.8911411 102.71229034 202.11970632 111.37403847 203.9128418 120.8828125 C204.08245894 121.6487205 204.25207609 122.41462851 204.42683315 123.20374584 C204.89599294 125.7899351 205.05062409 128.14942381 205.07106018 130.77400208 C205.08574341 132.21051117 205.08574341 132.21051117 205.10072327 133.67604065 C205.10647873 134.71469772 205.11223419 135.7533548 205.11816406 136.82348633 C205.12806366 137.92636993 205.13796326 139.02925354 205.14816284 140.16555786 C205.17972243 143.80696474 205.20451347 147.44838465 205.22924805 151.08984375 C205.24982235 153.61618893 205.27081895 156.14253071 205.29222107 158.66886902 C205.34175496 164.63627116 205.38703301 170.60369088 205.43024343 176.57114094 C205.47968891 183.36680564 205.53457984 190.16242296 205.58992302 196.95804179 C205.70361202 210.93292111 205.81047935 224.90784595 205.9128418 238.8828125 C206.5728418 238.8828125 207.2328418 238.8828125 207.9128418 238.8828125 C207.9128418 267.2628125 207.9128418 295.6428125 207.9128418 324.8828125 C196.0328418 324.8828125 184.1528418 324.8828125 171.9128418 324.8828125 C171.79251537 308.49167909 171.79251537 308.49167909 171.76635742 301.51953125 C171.74840462 296.75689707 171.72713789 291.99443545 171.68652344 287.23193359 C171.65399293 283.39346294 171.63600223 279.55517726 171.62821007 275.71657944 C171.62265514 274.25009116 171.611808 272.78361332 171.59565163 271.31720352 C171.57396019 269.26739659 171.57087124 267.21835975 171.57226562 265.16845703 C171.56227287 263.4163945 171.56227287 263.4163945 171.55207825 261.62893677 C171.67113022 260.72271576 171.79018219 259.81649475 171.9128418 258.8828125 C172.9028418 258.2228125 173.8928418 257.5628125 174.9128418 256.8828125 C175.36563978 254.61851983 175.36563978 254.61851983 175.2870636 251.9420166 C175.29407791 250.89668259 175.30109222 249.85134857 175.30831909 248.77433777 C175.30067535 247.62226334 175.29303162 246.4701889 175.28515625 245.28320312 C175.28880692 244.07312088 175.29245758 242.86303864 175.29621887 241.61628723 C175.3029554 238.28658781 175.29617379 234.95744342 175.28288674 231.62779808 C175.27156077 228.1301609 175.27568169 224.63253795 175.27763367 221.1348877 C175.27851815 215.24335981 175.2674197 209.3519466 175.24902344 203.46044922 C175.22801036 196.6931221 175.22431133 189.92596486 175.2305854 183.15861177 C175.23633391 176.61899906 175.23055952 170.07944497 175.21941185 163.5398407 C175.2148216 160.77478426 175.21386761 158.00976435 175.2159977 155.2447052 C175.26748796 137.31216004 175.26748796 137.31216004 174.11279297 119.42773438 C174.01568134 118.38661121 174.01568134 118.38661121 173.91660786 117.32445526 C172.94074425 109.28688148 168.55819457 104.11814317 162.69018555 98.91015625 C151.10042143 90.10657916 136.44578549 85.41414198 122.8503418 80.6328125 C121.26873491 80.07011971 119.68744137 79.50654546 118.10644531 78.94213867 C115.69911085 78.08283093 113.29162083 77.22399962 110.88316345 76.36784363 C103.35453116 73.6913414 95.85028208 70.95099862 88.3503418 68.1953125 C87.14619629 67.75574219 85.94205078 67.31617188 84.70141602 66.86328125 C79.18383013 64.84467047 73.67750882 62.80386648 68.19987488 60.67936707 C66.32415736 59.95245231 64.44578615 59.23239713 62.56738281 58.51245117 C60.23976597 57.6184552 57.91694581 56.71182736 55.60009766 55.7902832 C54.55990479 55.39284912 53.51971191 54.99541504 52.44799805 54.5859375 C51.09266968 54.05468262 51.09266968 54.05468262 49.70996094 53.51269531 C46.82100911 52.68039387 46.82100911 52.68039387 43.48950195 53.43041992 C39.19028159 53.97420527 37.09255952 53.15096954 33.15112305 51.41796875 C32.52686432 51.14906326 31.90260559 50.88015778 31.25942993 50.60310364 C29.92916312 50.02798875 28.60207682 49.44546889 27.27804565 48.85614014 C25.20465274 47.93613233 23.12166618 47.04230535 21.03417969 46.15478516 C14.94551352 43.55792373 8.90031652 40.89919239 2.9206543 38.05859375 C2.04884521 37.66341553 1.17703613 37.2682373 0.27880859 36.86108398 C-1.27208816 36.15649945 -2.80730305 35.41555289 -4.31835938 34.62915039 C-9.34776194 32.39147526 -12.54317427 33.0123313 -17.71606445 34.7890625 C-20.19532369 35.78769234 -22.64210012 36.80838487 -25.0871582 37.8828125 C-25.69967438 38.14580139 -26.31219055 38.40879028 -26.94326782 38.67974854 C-31.31259424 40.55865598 -35.6405526 42.52208782 -39.9621582 44.5078125 C-44.66015013 46.65643162 -49.36651274 48.78425627 -54.0871582 50.8828125 C-54.88412109 51.24600586 -55.68108398 51.60919922 -56.50219727 51.98339844 C-59.81544348 53.38742437 -61.78654821 53.9353567 -65.37231445 53.30859375 C-69.70976511 52.81145167 -72.02293699 53.55115719 -76.0793457 55.109375 C-76.75799179 55.36438782 -77.43663788 55.61940063 -78.135849 55.88214111 C-80.41707925 56.7428697 -82.68923636 57.62540095 -84.9621582 58.5078125 C-86.59651664 59.12948198 -88.23154869 59.74938289 -89.8671875 60.36767578 C-92.55906373 61.38529402 -95.25043667 62.40408084 -97.93980408 63.42831421 C-105.19745107 66.18806854 -112.48214309 68.86863277 -119.7796402 71.52109146 C-121.68098194 72.21238455 -123.5818693 72.90491228 -125.48260498 73.59786987 C-126.11233467 73.82743944 -126.74206436 74.05700901 -127.39087677 74.29353523 C-128.66429395 74.75778893 -129.93770602 75.22205667 -131.21111298 75.68633842 C-134.34257752 76.82762195 -137.47498495 77.96613662 -140.60882568 79.10089111 C-172.25672618 88.89491124 -172.25672618 88.89491124 -195.0871582 110.8828125 C-198.55165046 125.24180288 -197.39982453 140.93538538 -197.38874078 155.58949924 C-197.38765848 158.42841748 -197.39258426 161.26731396 -197.3973462 164.10622746 C-197.40835211 170.79422419 -197.40892451 177.48216467 -197.40283203 184.17016602 C-197.39674965 191.06369153 -197.40923054 197.95701514 -197.4304021 204.85050625 C-197.4479824 210.79394401 -197.45402659 216.73731717 -197.45076436 222.68077999 C-197.44895138 226.2208056 -197.45159235 229.76068587 -197.4654789 233.30068779 C-197.48032036 237.2284544 -197.47111907 241.15595827 -197.45947266 245.08374023 C-197.46711639 246.25608719 -197.47476013 247.42843414 -197.4826355 248.63630676 C-197.47211403 250.23171799 -197.47211403 250.23171799 -197.46138 251.85935974 C-197.46163162 253.25041003 -197.46163162 253.25041003 -197.46188831 254.66956234 C-197.33822738 255.39993489 -197.21456644 256.13030745 -197.0871582 256.8828125 C-196.0971582 257.5428125 -195.1071582 258.2028125 -194.0871582 258.8828125 C-193.72639465 261.62893677 -193.72639465 261.62893677 -193.74658203 265.16845703 C-193.74592491 266.1344986 -193.74592491 266.1344986 -193.74525452 267.12005615 C-193.74734727 269.25221914 -193.77069956 271.38359912 -193.79418945 273.515625 C-193.79978372 274.99249848 -193.80405462 276.46937752 -193.80705261 277.94625854 C-193.81851485 281.83607313 -193.84799348 285.7255524 -193.88116455 289.61523438 C-193.91722722 294.28076752 -193.93102006 298.9464127 -193.94852448 303.61204529 C-193.97763047 310.70253433 -194.03510704 317.79228746 -194.0871582 324.8828125 C-205.9671582 324.8828125 -217.8471582 324.8828125 -230.0871582 324.8828125 C-230.0871582 296.5028125 -230.0871582 268.1228125 -230.0871582 238.8828125 C-229.0971582 239.2128125 -228.1071582 239.5428125 -227.0871582 239.8828125 C-227.09176717 239.31464467 -227.09637613 238.74647684 -227.10112476 238.1610918 C-227.21231688 224.23402437 -227.29465674 210.30702477 -227.34621906 196.37960529 C-227.37182728 189.64392612 -227.40728285 182.9085902 -227.46435547 176.1730957 C-227.51921765 169.6566932 -227.54869182 163.14059926 -227.56154442 156.62398338 C-227.5706879 154.15443257 -227.58853866 151.68489607 -227.61580849 149.2154789 C-227.80915825 130.9582993 -227.44582873 110.7315784 -217.0871582 94.8828125 C-216.57475586 94.06973633 -216.57475586 94.06973633 -216.05200195 93.24023438 C-204.29176266 74.76270586 -186.00499757 67.41907898 -166.0871582 59.8828125 C-164.58475586 59.31288574 -164.58475586 59.31288574 -163.05200195 58.73144531 C-158.23763901 56.90583665 -153.42277295 55.08157809 -148.60595703 53.26245117 C-140.07273191 50.03632752 -131.57175872 46.73517645 -123.0871582 43.3828125 C-113.75538778 39.6992014 -104.4070951 36.06335664 -95.0300293 32.49682617 C-93.74620908 32.00849697 -92.46267473 31.51941549 -91.17944336 31.02954102 C-89.39961935 30.35056417 -87.61841732 29.67520293 -85.8371582 29 C-84.82137695 28.61440918 -83.8055957 28.22881836 -82.7590332 27.83154297 C-80.54064137 27.04383549 -78.38136471 26.39696057 -76.0871582 25.8828125 C-76.0871582 24.2328125 -76.0871582 22.5828125 -76.0871582 20.8828125 C-62.97072031 15.58968277 -49.8244161 10.38364548 -36.59130859 5.38842773 C-34.68784029 4.66660457 -32.78684286 3.93823692 -30.88818359 3.20385742 C-28.08896146 2.12193491 -25.28261336 1.06084197 -22.47387695 0.00390625 C-21.63217453 -0.32613907 -20.79047211 -0.65618439 -19.92326355 -0.99623108 C-19.12745377 -1.29081711 -18.33164398 -1.58540314 -17.51171875 -1.88891602 C-16.82369675 -2.15124527 -16.13567474 -2.41357452 -15.42680359 -2.68385315 C-10.04485244 -3.68066417 -4.99044246 -1.90750738 0 0 Z " fill="#000000" transform="translate(411.087158203125,217.1171875)"/>
<path d="M0 0 C0.84292603 0.37117447 1.68585205 0.74234894 2.55432129 1.12477112 C5.23702817 2.30721798 7.9155591 3.4987706 10.59375 4.69140625 C13.27255257 5.87901354 15.95220824 7.06462436 18.63317871 8.24732971 C20.29742787 8.98205495 21.96034306 9.7198116 23.6217041 10.46104431 C27.72734146 12.27906187 31.79741186 13.9218182 36.09375 15.25390625 C36.09375 16.90390625 36.09375 18.55390625 36.09375 20.25390625 C36.92221436 20.35848145 37.75067871 20.46305664 38.60424805 20.57080078 C42.58049136 21.34919082 46.18127463 22.68377885 49.92578125 24.18359375 C51.07836174 24.63672691 51.07836174 24.63672691 52.25422668 25.09901428 C54.8069867 26.10377467 57.35652578 27.11646976 59.90625 28.12890625 C62.64945484 29.21045151 65.39350806 30.28982608 68.13757324 31.3691864 C70.07542177 32.13162013 72.01299745 32.89474767 73.95031738 33.65852356 C85.52088897 38.21820409 97.12035138 42.70310387 108.71875 47.19140625 C111.7149513 48.35125526 114.71105118 49.51136448 117.70695496 50.67198181 C119.49262017 51.36375068 121.27841516 52.05518474 123.06440735 52.74610901 C133.75236706 56.88616061 144.41986669 61.0771693 155.09375 65.25390625 C155.09375 113.43390625 155.09375 161.61390625 155.09375 211.25390625 C156.41375 210.92390625 157.73375 210.59390625 159.09375 210.25390625 C159.09375 230.71390625 159.09375 251.17390625 159.09375 272.25390625 C148.86375 272.25390625 138.63375 272.25390625 128.09375 272.25390625 C128.09375 257.07390625 128.09375 241.89390625 128.09375 226.25390625 C128.75375 225.92390625 129.41375 225.59390625 130.09375 225.25390625 C130.42375 178.72390625 130.75375 132.19390625 131.09375 84.25390625 C128.12375 83.26390625 125.15375 82.27390625 122.09375 81.25390625 C120.449262 80.65339071 118.80907438 80.04070845 117.17700195 79.40722656 C115.88848831 78.90881256 115.88848831 78.90881256 114.57394409 78.40032959 C113.21669724 77.87152191 113.21669724 77.87152191 111.83203125 77.33203125 C110.85920197 76.95483948 109.88637268 76.57764771 108.88406372 76.18902588 C105.723916 74.9628962 102.56504456 73.73351734 99.40625 72.50390625 C97.21560324 71.6529251 95.02492915 70.80201432 92.83422852 69.95117188 C77.47690195 63.9816881 62.1399916 57.96113766 46.82348633 51.88769531 C46.08460175 51.59489685 45.34571716 51.30209839 44.58444214 51.00042725 C43.23684398 50.46619979 41.88950376 49.93132089 40.54251099 49.39556885 C36.07950168 47.62572786 31.59266265 45.92971009 27.09375 44.25390625 C27.09375 44.91390625 27.09375 45.57390625 27.09375 46.25390625 C21.55754863 44.58942741 16.34980673 42.53258256 11.1171875 40.08203125 C10.49821594 39.79396606 9.87924438 39.50590088 9.24151611 39.20910645 C6.66174837 38.00585934 4.0841217 36.79911835 1.51757812 35.56787109 C-0.37967585 34.66080027 -2.28617231 33.77625245 -4.1953125 32.89453125 C-5.31631348 32.36375977 -6.43731445 31.83298828 -7.59228516 31.28613281 C-13.88654091 29.32561172 -18.73749215 31.36044624 -24.46875 34.125 C-25.06373291 34.40739029 -25.65871582 34.68978058 -26.27172852 34.98072815 C-28.15428717 35.87544051 -30.03058111 36.78235012 -31.90625 37.69140625 C-33.78253875 38.59544068 -35.66008046 39.49653024 -37.54077148 40.39137268 C-39.24771075 41.2042635 -40.95017124 42.02653967 -42.65234375 42.84936523 C-46.05579966 44.31845901 -49.32707097 45.31301429 -52.90625 46.25390625 C-52.90625 45.59390625 -52.90625 44.93390625 -52.90625 44.25390625 C-74.66690259 52.36022865 -96.2712371 60.86339151 -117.87695312 69.37158203 C-119.05973343 69.83732635 -120.24251373 70.30307068 -121.46113586 70.78292847 C-123.6642758 71.65071744 -125.86724612 72.51893726 -128.06999207 73.38772583 C-137.33739797 77.0398397 -146.6221233 80.64341253 -155.90625 84.25390625 C-156.23625 131.11390625 -156.56625 177.97390625 -156.90625 226.25390625 C-155.91625 226.58390625 -154.92625 226.91390625 -153.90625 227.25390625 C-153.90625 242.10390625 -153.90625 256.95390625 -153.90625 272.25390625 C-164.13625 272.25390625 -174.36625 272.25390625 -184.90625 272.25390625 C-184.90625 251.79390625 -184.90625 231.33390625 -184.90625 210.25390625 C-183.91625 210.58390625 -182.92625 210.91390625 -181.90625 211.25390625 C-181.57625 163.07390625 -181.24625 114.89390625 -180.90625 65.25390625 C-133.97562899 46.93951756 -133.97562899 46.93951756 -112.78125 38.81640625 C-108.54911926 37.19364475 -104.31743706 35.56971904 -100.0859375 33.9453125 C-99.07827332 33.55920807 -98.07060913 33.17310364 -97.03240967 32.77529907 C-91.79179421 30.76340639 -86.5620283 28.72742556 -81.34472656 26.65576172 C-79.75689865 26.02697365 -79.75689865 26.02697365 -78.13699341 25.38548279 C-76.11671891 24.58385495 -74.09813351 23.77795311 -72.08151245 22.96717834 C-71.18207916 22.61054611 -70.28264587 22.25391388 -69.35595703 21.88647461 C-68.56641632 21.57028671 -67.77687561 21.25409882 -66.96340942 20.92832947 C-64.90625 20.25390625 -64.90625 20.25390625 -61.90625 20.25390625 C-61.90625 18.60390625 -61.90625 16.95390625 -61.90625 15.25390625 C-61.15988281 14.97160156 -60.41351563 14.68929688 -59.64453125 14.3984375 C-48.83598106 10.19579712 -38.28482388 5.44374556 -27.72387695 0.66137695 C-27.09989517 0.37928375 -26.47591339 0.09719055 -25.83302307 -0.19345093 C-24.1116037 -0.97220513 -22.39121988 -1.75324721 -20.67089844 -2.53442383 C-12.79792345 -5.9849338 -7.40891028 -3.3242288 0 0 Z " fill="#000000" transform="translate(412.90625,271.74609375)"/>
<path d="M0 0 C1.27143608 0.48170521 2.53975653 0.97169772 3.80517578 1.46899414 C4.48097687 1.72918839 5.15677795 1.98938263 5.85305786 2.25746155 C7.2678707 2.80439677 8.68126284 3.35502026 10.09326172 3.90917969 C12.26138983 4.75842045 14.43513134 5.59190942 16.60986328 6.42407227 C17.98782721 6.95895366 19.36544456 7.49472896 20.74267578 8.03149414 C21.39364227 8.28051987 22.04460876 8.52954559 22.71530151 8.78611755 C27.26043396 10.58654175 27.26043396 10.58654175 28.37548828 12.81665039 C28.04548828 13.80665039 27.71548828 14.79665039 27.37548828 15.81665039 C28.60783203 16.2046582 29.84017578 16.59266602 31.10986328 16.99243164 C37.09557046 18.99193733 42.84095656 21.49038993 48.62548828 24.00415039 C50.45141693 24.7928732 52.27734641 25.58159408 54.103302 26.37025452 C56.09072963 27.22939949 58.07736884 28.09035002 60.06396484 28.95141602 C63.90450921 30.61472612 67.74936075 32.26787851 71.59521484 33.91886902 C74.91403018 35.34387559 78.23169953 36.77153776 81.54919434 38.19961548 C83.16739913 38.89575943 84.78596324 39.59106878 86.40490723 40.28549194 C88.70102465 41.27089859 90.99545328 42.26014566 93.28955078 43.25024414 C93.9584433 43.53635559 94.62733582 43.82246704 95.3164978 44.11724854 C100.7973157 46.48976697 106.00656624 49.13218937 111.37548828 51.81665039 C111.70548828 98.01665039 112.03548828 144.21665039 112.37548828 191.81665039 C113.69548828 191.48665039 115.01548828 191.15665039 116.37548828 190.81665039 C116.37548828 202.69665039 116.37548828 214.57665039 116.37548828 226.81665039 C106.14548828 226.81665039 95.91548828 226.81665039 85.37548828 226.81665039 C85.37548828 219.88665039 85.37548828 212.95665039 85.37548828 205.81665039 C86.69548828 205.81665039 88.01548828 205.81665039 89.37548828 205.81665039 C89.37548828 159.94665039 89.37548828 114.07665039 89.37548828 66.81665039 C86.40548828 65.82665039 86.40548828 65.82665039 83.37548828 64.81665039 C80.85647034 63.75067931 78.35772141 62.66442707 75.86376953 61.54321289 C75.14539413 61.22299164 74.42701874 60.90277039 73.68687439 60.57284546 C71.35274547 59.53170517 69.02037122 58.48669538 66.68798828 57.44165039 C65.07776303 56.72261745 63.46741041 56.00386969 61.85693359 55.28540039 C58.60100787 53.83253659 55.34568362 52.37833799 52.09082031 50.9230957 C45.2740385 47.87637077 38.44964391 44.84681224 31.62548828 41.81665039 C29.42232499 40.83756989 27.21919582 39.8584126 25.01611328 38.87915039 C24.1140918 38.47825195 23.21207031 38.07735352 22.28271484 37.66430664 C21.65333008 37.38458008 21.02394531 37.10485352 20.37548828 36.81665039 C20.04548828 37.80665039 19.71548828 38.79665039 19.37548828 39.81665039 C13.00624199 39.09521473 7.40919751 36.60924058 1.53955078 34.16821289 C-7.94318825 30.46021878 -14.8268766 32.97813664 -23.99951172 36.37915039 C-25.77719249 37.02893213 -27.55579514 37.67619913 -29.33544922 38.32055664 C-30.11194824 38.60745361 -30.88844727 38.89435059 -31.68847656 39.18994141 C-33.62451172 39.81665039 -33.62451172 39.81665039 -35.62451172 39.81665039 C-35.95451172 39.15665039 -36.28451172 38.49665039 -36.62451172 37.81665039 C-40.87597941 39.64658861 -45.12567809 41.48060618 -49.37451172 43.31665039 C-50.02746216 43.59866302 -50.6804126 43.88067566 -51.35314941 44.17123413 C-59.77810921 47.81283532 -68.18227113 51.49786945 -76.56201172 55.24243164 C-77.38195618 55.6085556 -78.20190063 55.97467957 -79.04669189 56.35189819 C-83.0890134 58.1578087 -87.12909468 59.96853504 -91.16650391 61.78540039 C-92.64724748 62.44827407 -94.12803932 63.11103993 -95.60888672 63.77368164 C-96.29088135 64.08243729 -96.97287598 64.39119293 -97.67553711 64.70930481 C-102.39785456 66.81665039 -102.39785456 66.81665039 -104.62451172 66.81665039 C-104.62451172 112.68665039 -104.62451172 158.55665039 -104.62451172 205.81665039 C-103.30451172 205.81665039 -101.98451172 205.81665039 -100.62451172 205.81665039 C-100.62451172 212.74665039 -100.62451172 219.67665039 -100.62451172 226.81665039 C-110.85451172 226.81665039 -121.08451172 226.81665039 -131.62451172 226.81665039 C-131.62451172 214.93665039 -131.62451172 203.05665039 -131.62451172 190.81665039 C-130.30451172 191.14665039 -128.98451172 191.47665039 -127.62451172 191.81665039 C-127.62451172 145.61665039 -127.62451172 99.41665039 -127.62451172 51.81665039 C-110.39815187 43.77768246 -110.39815187 43.77768246 -103.39404297 40.83618164 C-102.2063028 40.33343971 -102.2063028 40.33343971 -100.99456787 39.82054138 C-99.32750104 39.1151427 -97.65996684 38.41084754 -95.99197388 37.7076416 C-93.38114725 36.60556909 -90.772933 35.49750613 -88.1652832 34.38793945 C-80.76229666 31.24065897 -73.35786412 28.10082934 -65.907547 25.06694031 C-63.89563762 24.24671702 -61.88693667 23.41912483 -59.87915039 22.58886719 C-57.47182784 21.59636199 -55.05811493 20.61917586 -52.63745117 19.65966797 C-51.58259521 19.22162842 -50.52773926 18.78358887 -49.44091797 18.33227539 C-48.52769775 17.96392578 -47.61447754 17.59557617 -46.67358398 17.21606445 C-45.65929321 16.52335449 -45.65929321 16.52335449 -44.62451172 15.81665039 C-44.50060059 15.00325195 -44.37668945 14.18985352 -44.24902344 13.35180664 C-43.93989014 12.0969043 -43.93989014 12.0969043 -43.62451172 10.81665039 C-41.29258284 9.49967746 -39.31121383 8.61267902 -36.81591797 7.73852539 C-36.13399887 7.48161926 -35.45207977 7.22471313 -34.74949646 6.96002197 C-32.56856071 6.14310056 -30.378567 5.35458214 -28.18701172 4.56665039 C-26.71431164 4.02164941 -25.24229585 3.47479548 -23.77099609 2.92602539 C-21.07857968 1.92307051 -18.38215788 0.93262895 -15.68139648 -0.04760742 C-9.64255678 -2.29125268 -6.35143538 -2.07364996 0 0 Z " fill="#000000" transform="translate(407.62451171875,317.183349609375)"/>
<path d="M0 0 C0.99 0.495 0.99 0.495 2 1 C2.495 2.485 2.495 2.485 3 4 C5.03204283 5.2426169 5.03204283 5.2426169 7.59570312 6.25244141 C8.57341675 6.66942291 9.55113037 7.08640442 10.55847168 7.51602173 C11.62198853 7.95675018 12.68550537 8.39747864 13.78125 8.8515625 C14.86506958 9.31106293 15.94888916 9.77056335 17.06555176 10.24398804 C20.53947265 11.71458704 24.01941904 13.17024278 27.5 14.625 C30.9793016 16.08976728 34.45731037 17.5575395 37.93444824 19.0274353 C40.10194395 19.94254869 42.27094548 20.85410467 44.44152832 21.76187134 C45.41924194 22.17254852 46.39695557 22.58322571 47.40429688 23.00634766 C48.26953979 23.36814117 49.13478271 23.72993469 50.02624512 24.10269165 C52 25 52 25 53 26 C53.09650437 27.86028034 53.12187292 29.72427029 53.12025452 31.58705139 C53.12231651 33.40657066 53.12231651 33.40657066 53.12442017 35.2628479 C53.12088056 36.61932397 53.11724575 37.9757998 53.11352539 39.33227539 C53.11324352 40.75112404 53.11340124 42.16997284 53.1139679 43.58882141 C53.11425589 47.45228801 53.1083589 51.31572383 53.10139394 55.17918324 C53.09516067 59.21242573 53.09455662 63.24566885 53.09336853 67.27891541 C53.09025514 74.92165468 53.08204164 82.56437973 53.07201904 90.20711273 C53.06085816 98.90588019 53.05534752 107.60464831 53.05032361 116.30342114 C53.03985903 134.20228906 53.02205901 152.10114287 53 170 C44.75 170 36.5 170 28 170 C28 128.42 28 86.84 28 44 C25.03 43.01 22.06 42.02 19 41 C16.79985754 40.12835843 14.60989255 39.23035611 12.43359375 38.30078125 C11.28955078 37.81416016 10.14550781 37.32753906 8.96679688 36.82617188 C7.80212891 36.32666016 6.63746094 35.82714844 5.4375 35.3125 C4.23802734 34.80138672 3.03855469 34.29027344 1.80273438 33.76367188 C-1.13286285 32.51224198 -4.06704935 31.25761707 -7 30 C-7 30.66 -7 31.32 -7 32 C-7.56847656 31.855625 -8.13695312 31.71125 -8.72265625 31.5625 C-15.64813707 29.89760979 -21.30693604 29.02530491 -28 32 C-28.99 32 -29.98 32 -31 32 C-31 31.34 -31 30.68 -31 30 C-32.4837915 30.63615234 -32.4837915 30.63615234 -33.99755859 31.28515625 C-37.65991377 32.85421355 -41.32427032 34.41854762 -44.98925781 35.98144531 C-46.57672445 36.65918895 -48.16364168 37.33822092 -49.75 38.01855469 C-52.02722049 38.99491297 -54.30636152 39.96665631 -56.5859375 40.9375 C-57.29744965 41.24373291 -58.00896179 41.54996582 -58.74203491 41.86547852 C-63.77225659 44 -63.77225659 44 -66 44 C-66 85.58 -66 127.16 -66 170 C-74.58 170 -83.16 170 -92 170 C-92 122.48 -92 74.96 -92 26 C-85.38220539 22.6911027 -78.92732817 19.63186123 -72.08984375 16.8984375 C-70.25829529 16.15405968 -68.42691979 15.40925618 -66.59570312 14.6640625 C-63.74675332 13.50954408 -60.89651349 12.35857082 -58.04321289 11.21484375 C-55.26301291 10.09831657 -52.48864933 8.96823898 -49.71484375 7.8359375 C-48.85455063 7.49525238 -47.99425751 7.15456726 -47.1078949 6.80355835 C-46.31939651 6.47957062 -45.53089813 6.15558289 -44.71850586 5.82177734 C-44.02252792 5.54151703 -43.32654999 5.26125671 -42.60948181 4.97250366 C-40.64801621 4.02476345 -40.64801621 4.02476345 -40 1 C-26.32774544 -8.93564887 -14.24763901 -7.20751193 0 0 Z " fill="#000000" transform="translate(419,373)"/>
<path d="M0 0 C0 36.96 0 73.92 0 112 C-17.49 112 -34.98 112 -53 112 C-53 75.04 -53 38.08 -53 0 C-26.20224719 -10.71910112 -26.20224719 -10.71910112 0 0 Z " fill="#000000" transform="translate(426,431)"/>
</svg>
