<?xml version="1.0" standalone="no"?>
<!DOCTYPE svg PUBLIC "-//W3C//DTD SVG 20010904//EN"
 "http://www.w3.org/TR/2001/REC-SVG-20010904/DTD/svg10.dtd">
<svg version="1.0" xmlns="http://www.w3.org/2000/svg"
 width="200.000000pt" height="200.000000pt" viewBox="0 0 200.000000 200.000000"
 preserveAspectRatio="xMidYMid meet">
<metadata>
Created by potrace 1.14, written by Peter Selinger 2001-2017
</metadata>
<g transform="translate(0.000000,200.000000) scale(0.100000,-0.100000)"
fill="#000000" stroke="none">
<path d="M485 1873 c12 -47 18 -283 6 -283 -5 0 -13 5 -16 10 -8 13 -72 40
-96 40 -14 0 -17 -6 -13 -27 8 -42 8 -154 0 -188 -17 -71 -26 -95 -36 -95 -5
0 -16 10 -25 23 l-16 22 -17 -24 c-38 -55 -53 -192 -30 -265 6 -18 11 -194 12
-407 3 -419 3 -420 68 -433 38 -7 85 21 80 48 -3 17 23 17 168 1 19 -2 64 -7
99 -10 35 -3 76 -7 90 -10 14 -2 58 -7 96 -10 39 -4 84 -9 100 -10 17 -2 60
-7 97 -10 36 -4 75 -8 85 -10 10 -2 33 -4 51 -4 24 -1 32 -6 32 -19 0 -23 35
-62 58 -63 50 -4 92 33 92 81 0 26 9 36 68 73 179 116 178 115 196 105 33 -19
69 -16 91 6 20 20 21 31 20 175 0 141 1 156 19 173 25 23 25 82 0 129 -14 28
-18 66 -21 219 -2 102 -5 190 -7 196 -2 5 -24 11 -49 12 -25 2 -54 5 -66 7
-19 3 -86 11 -181 20 -25 2 -74 7 -110 10 -36 4 -76 8 -90 9 -15 2 -24 8 -22
17 3 16 0 10 76 173 31 65 56 124 56 132 0 8 -11 14 -27 15 -16 0 -37 2 -47 4
-11 2 -51 6 -90 10 -39 3 -84 8 -101 10 -16 2 -63 7 -102 10 -71 6 -73 6 -84
-18 -7 -15 -17 -23 -25 -20 -8 3 -19 -9 -29 -33 l-16 -38 -18 29 c-13 23 -15
36 -8 56 11 29 5 65 -18 94 -15 20 -15 20 -30 1 -8 -10 -16 -24 -18 -30 -2 -5
-23 6 -48 26 -52 42 -135 85 -179 93 -31 6 -32 5 -25 -22z"/>
</g>
</svg>
